<?xml version="1.0" encoding="UTF-8"?>
<svg id="Layer_1" xmlns="http://www.w3.org/2000/svg" version="1.1" viewBox="0 0 548.6 351.6">
  <!-- Generator: Adobe Illustrator 29.0.0, SVG Export Plug-In . SVG Version: 2.1.0 Build 186)  -->
  <defs>
    <style>
      .st0 {
        fill: #fff;
      }
    </style>
  </defs>
  <g id="_x32_yiceQ.tif">
    <g>
      <path class="st0" d="M163.5,30c.7.1,1.4.3,2,.3,4.9.5,5.7,1.3,6,6.3,0,.6,0,1.2,0,1.7,0,9.2,0,18.4,0,27.7,0,3.1-.3,6.1-.6,9.2-.1,1.7-1.3,2.7-3,2.9-1.5.2-2.9.3-4.4.4v3.2h29.1c.6-2.1.4-3.5-2.1-3.6-2.5-.2-4-1.7-4-4.2,0-5.4,0-10.8,0-16.2,0-.3.3-.5.8-1.4.7,1.2,1.4,1.9,1.7,2.8,2.7,6.9,5.3,13.8,8,20.7.3.8,1.1,2,1.8,2,6,.2,11.9,0,17.9,0,.7-2,.5-3.3-1.7-4-2.8-.9-4.7-2.9-5.8-5.5-1.9-4.7-3.6-9.5-5.2-14.2-.2-.6.3-1.8.9-2.1,7.2-3.3,8.9-9.4,8.4-16.5-.6-8-4.3-11.9-12.3-12.2-11.6-.4-23.3-.4-34.9-.6-.8,0-1.6.2-2.5.3v3ZM266.5,56.8c.9-.5,1.3-.7,1.7-.9,4.8-2,7.5-5.7,8.2-10.8,1.1-8.8-.7-18-14.3-18-11,0-21.9-.1-32.9-.2-1.2,0-2.4,0-2.4,1.7,0,1.7,1.1,1.7,2.3,1.8,4.7.4,5.5,1.2,5.6,6.1,0,4.3,0,8.6,0,13,0,7.8.1,15.6,0,23.4,0,4.4-1.2,5.3-5.6,5.5-1.4,0-2.4.2-2.3,2,0,2.1,1.3,1.7,2.5,1.7,8.1,0,16.3,0,24.4,0,.7,0,1.5,0,2.2-.1.5-2.2.5-3.7-2.3-3.8-2.7-.1-4-1.9-4-4.5,0-1.9-.1-3.8-.1-5.7,0-3.6,0-7.2,0-10.9.3-.1.6-.3.9-.4.5.7,1.3,1.4,1.6,2.2,2.8,6.9,5.5,13.9,8.2,20.8.4.9,1.2,2.3,1.9,2.3,5.9.2,11.9.1,17.7.1.6-2.2.4-3.3-1.6-4.3-2-1-4.2-2.6-5.1-4.5-2.5-5.3-4.5-11-6.7-16.6ZM96.4,78.7c-6.9-1-11.8-4.7-15.1-10.2-4.1-6.7-7.9-13.7-11.7-20.6-.3-.5,0-1.8.4-2.3,2.8-3,5.6-5.9,8.6-8.7,3.3-3.1,7.1-5.1,11.6-6,3-.6,3.1-.7,2.2-3.8h-27.5c-.8,3.3-.7,3.1,2.3,3.9,1.3.3,3.1,1.5,3.4,2.6.4,1.7.2,3.8-.6,5.4-2.4,5.2-6.3,9.3-10.7,13-1.4,1.2-2.8,2.4-4.6,3.9,0-7.4,0-14.1,0-20.8,0-.4.2-.8.3-1.2.4-2,1.5-3,3.6-3.1,1.3,0,2.6-.3,4-.5,0-1.3-.1-2.3-.2-3.3h-30.6v3.3c.9.1,1.8.3,2.6.4,4.3.5,4.9.7,5.2,5.1.3,4.6.2,9.2.1,13.8,0,7.7,0,15.4-.2,23.2-.2,4.5-1.4,5.5-5.5,5.6-2.7,0-2.8.3-2.2,3.4h29.3v-3.1c-6-1.1-6.6-1.9-6.5-8.1,0-2.2.2-4.5,0-6.7-.2-2.5.8-4.1,3-5.3,3.8,5.3,7.5,10.6,9.7,16.8.7,2,.1,3.1-2,3.1-1.6,0-2,.7-1.9,2.2,0,1.7,1.3,1.5,2.3,1.5,8.8,0,17.6,0,26.4,0,1.5,0,2.9-.2,4.4-.3v-3ZM445.7,64c0-6.9,0-13.7,0-20.5,0-.5-.5-1.3-.9-1.4-.6,0-1.5.2-1.9.6-.6.7-1,1.7-1.5,2.6-1.7,2.6-3.7,4.9-6.9,5.7-1.5.4-2.2,0-2.1-1.7,0-2.2,0-4.3,0-6.5,0-4,0-8.1,0-12.1,5.4-1,10-.3,13.5,3.8,3.1,3.6,5.8,7.6,8.6,11.5.8,1.1,1.2,2.5,3.1,1.6v-20.8h-47.7v3.5c.7,0,1.2.1,1.8.1,4.6.2,5.7.9,5.8,5.5.1,12.4,0,24.8-.1,37.1,0,4-.9,4.6-4.9,5.1q-3.1.4-2.5,3.5c.1,0,.3.2.4.2,15.5,0,30.9,0,46.4,0,1.5,0,1.8-.8,1.8-2.1,0-5.6,0-11.1,0-16.7,0-.9-.7-1.8-1.1-2.7-.9.6-1.9,1-2.6,1.8-2.8,3.5-5.1,7.4-8.1,10.7-3.2,3.5-7.3,5.4-12.2,5.3-1.9,0-2.4-.7-2.4-2.5.1-6.1,0-12.1,0-18.2,0-2.7.7-3.1,3.2-2.1,3.2,1.3,5.5,3.7,6.8,6.9.6,1.4,1.5,2.2,3.4,1.5ZM319.1,27.3c-.3-.2-.3-.3-.4-.3-9.8,0-19.6-.1-29.4,0-.5,0-1.3,1-1.3,1.5,0,.7.6,1.7,1.2,1.9.9.4,2.1.4,3.2.5,1.9,0,2.9,1.1,3.1,2.9.3,2.4.5,4.8.6,7.2.2,8.8-.1,17.6.6,26.4.8,10.1,6.5,15.9,15.3,16.4,11.7.6,19.3-2.9,21.5-15.6.9-5.5.7-11.2,1-16.8.3-4.6.4-9.3,1-13.9.4-2.9,2.1-5.3,5-6.4,2.3-.8,2.2-2.3,1.6-3.9h-18.9v3.4c5.5.9,7.3,4.8,7.9,9.6.1.8.1,1.7.1,2.5,0,5,0,10,0,14.9,0,3.2-.3,6.5-.7,9.7-.5,3.7-1.7,7.1-4.5,9.8-5.2,4.9-12.2,3.1-14.3-3.7-.3-.9-.6-1.9-.6-2.9,0-11.3-.2-22.6,0-33.9,0-4.6,1.4-5.5,6-5.8.6,0,1.1-.1,1.9-.2,0-1.1.1-2.2.1-3ZM157.7,78.8c-5.4-1.4-6.9-2.7-8.8-7.7-1.1-2.9-2.3-5.7-3.4-8.6-4.6-11.6-9.1-23.2-13.7-34.8-.4-.9-1.3-1.6-1.9-2.3-.7.8-1.7,1.4-2.1,2.4-1.2,2.5-2.1,5.1-3.1,7.6-5.1,12.3-10.2,24.5-15.3,36.8-1.1,2.6-2.9,4.7-5.6,5.7-2,.8-2.4,2-1.7,4h21.6c-.2-1.5.8-3-1.4-3.6-4.9-1.3-6.4-3.2-6.7-8.2-.1-1.9.4-2.8,2.4-2.7,2.2,0,4.5,0,6.7,0q6.1,0,7.9,5.7c1.1,3.5.5,4.6-3.1,5.1-2.7.3-2.7,1.7-2.2,3.7h30.6v-3.2ZM523.1,81.8c0-6.7,0-13.2,0-19.6,0-.5-.5-1.4-.8-1.5-.5-.1-1.3.3-1.7.7-.5.5-.8,1.3-1.2,1.9-2.5,3.4-4.9,6.9-7.7,10-3.1,3.3-7.1,5.1-11.8,5.2-2,0-2.7-.7-2.7-2.8,0-10.6,0-21.3,0-31.9,0-2.7,0-5.5.3-8.2.4-4.1,1.3-4.9,5.3-5.1,2.5-.1,3-1.2,2.2-3.5h-30.3v3.2c1.2.1,2.2.2,3.3.3,3,.3,4.1,1.2,4.1,4.2.1,12.7.2,25.4.2,38.1,0,4-.9,4.8-4.9,5.4q-3.1.5-2.4,3.7h48.1Z"/>
      <path d="M523.6,128.2c-7.1,2.8-14.2,5.7-21.2,8.5-5.2,2.1-10.5,4.2-15.8,6.1-1.4.5-2.1,1.1-2,2.6.1,2.2,0,4.5.1,6.7.2,4.1-1.1,7.7-4.2,10.2-6.1,4.9-12.7,8.7-20.9,7.6-4.9-.6-9.4-2.9-13-6.4-1.7-1.7-3.2-1.3-5.1-.4-4.1,2.1-8.4,4-12.6,5.9-7.2,3.3-14.5,6.7-21.7,9.9-14.1,6.2-28.4,12.3-42.5,18.6-10.9,4.8-21.8,9.9-32.7,14.8-5.4,2.4-10.9,4.5-16.5,6.5-2.4.8-2.9,1.9-3,4.4-.3,7.1-1.1,14.2-1.7,21.5-4.8,0-9.2,0-13.6,0-2.9,0-3.7.6-3,3.4.9,3.9,1.7,7.9,3.5,11.3,5.4,9.8,5.2,19.7.5,29.4-6.1,12.6-12.8,25-19.3,37.7-.5-.4-1-.7-1.3-1.2-5.7-9.4-11.7-18.6-17-28.2-4-7.3-6.5-15.2-6.5-23.8,0-4.8,1.2-9.2,4.2-13,1.1-1.4,2.1-3.1,3.3-4.4,2.6-2.8,2.9-6,2.2-10.2-3.2,0-6.5.1-9.8,0-3.3-.1-6.6-.6-9.9-.8-1.5-.1-2.1-.8-2.1-2.3-.2-5.8-.7-11.6-.9-17.4,0-1.5-.6-2.3-2-2.9-26.4-11.7-52.4-24-79.1-34.8-14.1-5.7-27.3-13.8-42.2-17.8-3.4-.9-6.5-3.2-9.8-4.9-3.3-1.7-4-1.8-6.5.9-3.1,3.3-7,4.3-11.3,4.6-6.2.5-12.1-.5-17.7-3.3-7.1-3.6-10.4-9.9-9.1-17.7.4-2.3-.3-3.5-2.3-4.4-11.1-5-22.1-10.1-33.1-15.1q-3.5-1.6-2.6-5.2c2.2-9.6,4.5-19.2,6.6-28.9.4-1.7,1.2-2.4,2.9-2.4.7,0,1.3,0,2,0,10.3.1,20.6.2,30.9.4,1.1,0,2.2,0,3.2-.2,3.2-.3,4.2,0,5.2,3.2,1,2.9,1.5,6,2.2,8.9.1.6.3,1.3.9,1.9,0-1.9,0-3.8,0-5.6,0-2.6.2-5.1.5-7.7.1-1.4,1-1.9,2.4-1.8,12.1.3,24.3.5,36.4.7,5.9.1,6.3.4,7.8,6.3.7,2.6,1.1,5.2,2.2,7.8.2-1.9.5-3.8.7-5.7.2-2.4.3-4.8.6-7.2.2-1.4.9-2,2.5-1.9,8.1.3,16.3.4,24.4.6,5.2.2,10.4.5,15.7.6,2,0,2.7,1,2.9,2.9.4,2.9,1,5.8,1.5,8.8.3,0,.6,0,.8.1.7-2.4,1.5-4.7,2.1-7.1,1.2-4.6,1.1-4.8,5.9-5,7.6-.3,15.1-.2,22.7-.3,3,0,6,0,9,0,3.9,0,6.5,1.8,7.1,5.7.5,3,.8,6,1.8,9.2.2-.9.5-1.7.7-2.6.8-3,1.5-6,2.3-8.9.6-2.2,2-3.4,4.3-3.4,10.7-.2,21.4-.6,32.1-.7,6.3,0,6.3.1,8,6.2.3,1,.6,2,.9,3,.2,0,.4,0,.6,0,.3-2.3.7-4.6.9-7,.2-1.7,1-2.5,2.7-2.6,13.5-.4,26.9-.9,40.3,1.6,1.9.4,2.6,1.1,2.7,3,.1,3.3.5,6.7.8,10h1.1c.2-2,.5-4.1.7-6.2.2-1.3.1-2.7.6-3.9,1.4-3.8,2.1-4.2,6.2-4.3,7-.2,14-.7,20.9-.5,5.2.2,10.3,1.2,15.4,2.2,1,.2,2.2,1.7,2.6,2.8,1,2.6,1.5,5.3,2.2,8h.7c.3-2.5.8-5,1-7.5.1-2.1,1.1-3.1,3.1-3.6,6.8-1.9,13.8-2.1,20.8-1.8,5.2.2,10.5.4,15.7.3,2,0,3.4.6,3.9,2.3,1.2,3.8,2.1,7.7,3,11.5.1.6.2,1.1.7,1.8.2-.5.4-1.1.5-1.6.5-2.9.9-5.9,1.5-8.8.8-3.8,2.4-5,6.2-5,11.9,0,23.8,0,35.7-.1,2.1,0,3.2.6,3.5,2.8.4,2.6,1.2,5.1,1.9,7.6.2,0,.4,0,.6,0,.8-2.8,1.7-5.7,2.5-8.5.4-1.3,1-1.9,2.4-1.9,12.2,0,24.4-.1,36.6-.2,2,0,3.3.7,3.7,2.8,1.8,8.3,3.6,16.5,5.5,24.8.4,1.9,1,3.8,1.5,5.7v3ZM374.3,129.8c-.9-.1-1.3-.2-1.7-.2-14.3,0-28.6,0-42.9,0-2.4,0-3.6.9-4.7,3-13.6,26-25,53-36,80.2-.2.4-.2.9-.3,1.5,4.4.6,8.4.5,11.5-3.1,1.4-1.5,3.1-2.8,4.8-4,19.7-14.9,39.3-29.8,59.1-44.6,1.9-1.4,2.3-2.7,1.8-5-2.1-8.5-.7-16.5,4.7-23.6,1-1.4,2.3-2.5,3.8-4.2ZM181.8,159.6c1,.8,1.9,1.6,2.8,2.3,13.1,10.1,26.8,19.6,39.4,30.4,5.5,4.7,12.3,7.8,18.4,11.8,2.2,1.4,4.3,3,6.4,4.7,3.2,2.6,6.4,5.2,11,6-.3-1-.5-1.7-.8-2.4-11.9-27-23.8-53.9-35.7-80.9-.6-1.4-1.4-1.9-3-1.9-15,0-29.9,0-44.9,0-.6,0-1.2.1-2,.3,2.2,2.5,4.5,4.5,6.2,6.9,4.8,7,7.9,14.4,2.1,22.8ZM289,129.6c.1.7.1.9.2,1,.2.3.4.5.7.7,5.5,5.2,7.1,11.8,6.1,18.9-1.4,9.4-6.3,16.5-15.6,19.5-9,2.9-17.4,1.3-24.1-5.7-6.5-6.7-7.7-14.7-4.6-23.5,1.5-4.2,3.8-7.5,8.1-9.2.6-.3,1.2-.6,2.3-1.2h-29c.4,1.2.7,2,1,2.8,9.8,26,21.3,51.2,33.5,76.1,2.3,4.8,4.8,6.9,10,5.8,1.7-.4,2.7-.8,3.4-2.5,3.5-8.8,7.1-17.5,10.8-26.2,7.6-17.8,15.3-35.5,22.9-53.3.3-.8.5-1.7,1-3.1h-26.6ZM97.8,130.2c1,.8,1.7,1.5,2.5,2.1,6.6,5.5,9.4,12.6,8,21-.4,2.5.4,3.3,2.4,4.2,42.9,18.6,85.8,37.3,128.7,56,.6.3,1.3.5,2,.7-1-1.3-2.2-2.3-3.5-3.1-2.2-1.2-4.5-2.1-6.6-3.5-6-4.2-11.9-8.4-17.8-12.8-9.8-7.4-20.3-14-28.8-23-1.4-1.4-3.1-2.5-4.7-3.7-2.3-1.8-4.6-1.8-7.1-.3-2.4,1.4-5.1,3.2-7.7,3.3-7.1.4-14-1.1-19.3-6.3-6.6-6.5-7.6-14.5-5.8-23.1.4-2.1.1-3.5-1.6-4.4-4-2-7.9-4.4-12.1-5.6-8.8-2.5-17.9-2.2-27-2-.4,0-.7.2-1.5.4ZM313.1,210.3c.2.3.4.5.6.8.7-.3,1.5-.5,2.2-.8,4.9-2.1,9.8-4.2,14.7-6.2,10.1-4.2,20.4-8,30.4-12.4,14.8-6.5,29.5-13.3,44.2-20.2,11.6-5.4,23-11.2,34.5-16.8,1.6-.8,2-1.7,1.6-3.5-1.5-7.8.7-14.4,6.3-20,.6-.6,1.2-1.2,2.1-2.2-9.9-.2-19.1-.2-28.1,2.3-4.6,1.3-8.6,3.5-11.7,7.2-.8.9-1.2,2.3-1.3,3.5-.2,2.6.1,5.2,0,7.7-.8,12.2-11.6,21.8-23.8,20.8-3.1-.3-6.1-2-9.2-2.8-1.1-.3-2.6-.4-3.4.1-19.1,13.7-38.1,27.4-57.2,41.2-.7.5-1.4.9-2.1,1.3ZM514.4,120.9c-.2-1.6-.3-2.9-.6-4.2-1-5.1-2.1-10.1-3-15.2-.3-1.9-1-2.4-2.9-2.4-8.6,0-17.1,0-25.7,0-3.2,0-3.8.5-4.3,3.8-.8,5.2-1.5,10.4-2.3,15.5-.3,2.1.5,2.6,2.4,2.6,11.4,0,22.8,0,34.2,0,.6,0,1.1,0,2.1-.1ZM368,121.7c0-1.7.2-2.6,0-3.5-1.1-5.3-2.4-10.5-3.4-15.8-.3-1.6-1-2.1-2.6-2.1-9,0-17.9,0-26.9,0-1.7,0-2.5.5-2.7,2.1-.7,5.2-1.4,10.3-2,15.5-.3,3.5-.2,3.7,3.5,3.7,11.3,0,22.6,0,34.2,0ZM84.7,121.4c13.5,1.1,26.3,1,39.5,0-1.1-6.2-2.2-12-4.7-17.6-.9-2.1-2.2-3.1-4.5-3.1-7.4,0-14.8,0-22.2,0-4.7,0-4.7,0-5.5,4.5-.2,1.3-.5,2.6-.7,3.9-.6,4-1.3,8-1.9,12.4ZM445.5,121.4v-.3c5.6,0,11.1,0,16.7,0,2.9,0,3.2-.3,2.8-3.2-.8-5.2-1.7-10.3-2.5-15.5-.2-1.7-.9-2.4-2.7-2.4-9.4.1-18.7.2-28.1.4-.6,0-1.6.9-1.7,1.5-1.2,5.6-2.2,11.2-3.2,16.8-.4,1.9.2,2.7,2.3,2.6,5.5-.1,10.9,0,16.4,0ZM318.8,121.8c-1.3-6.7-2.4-12.6-3.5-18.5-.4-1.9-1.3-2.8-3.3-2.7-8.9,0-17.8,0-26.7-.1-1.6,0-2.2.5-2.4,2.1-.7,5.6-1.5,11.2-2.3,16.8-.3,1.8.2,2.5,2.2,2.5,7.9,0,15.8,0,23.7,0,3.9,0,7.7,0,12.3,0ZM134,121.8c.7.1,1,.2,1.3.2,10.6-.1,21.2-.3,31.9-.4,6.4,0,6.4,0,4.8-6.5-1-3.9-2.1-7.9-2.8-11.8-.3-1.6-.8-2.3-2.4-2.4-4.2-.1-8.5-.5-12.7-.4-4.9,0-9.7.4-14.6,1-1.1.1-2.7,1.5-2.9,2.5-1.1,5.8-1.8,11.6-2.6,17.7ZM416.2,120.9c-.8-6.5-1.1-12.7-3.6-18.5-.3-.7-1.3-1.5-2-1.5-9.4-.2-18.7-.2-28.1-.4-1.4,0-1.7.7-1.9,2-.4,2.9-1,5.9-1.6,8.8-.5,2.3-1.1,4.7-1.6,7-.4,2,.3,2.8,2.5,2.7,11.3-.1,22.6,0,33.8,0,.6,0,1.3,0,2.4-.1ZM250.3,121.6s0,0,0,0c5.6,0,11.1,0,16.7,0,1.8,0,2.7-.6,2.3-2.5-1.2-5.6-2.4-11.2-3.7-16.7-.2-.8-1.4-1.8-2.1-1.8-9,0-18.1,0-27.1.2-.5,0-1.4,1-1.5,1.6-.6,2.5-1,5-1.4,7.6-.5,3-1.1,6-1.6,9-.3,1.9.5,2.7,2.4,2.6,5.4,0,10.8,0,16.2,0ZM221.2,121.8c-1.3-6.6-2.4-12.5-3.7-18.2-.4-2-2-2.9-4.1-2.8-8,0-16.1,0-24.1-.2-1.4,0-2.2.5-2.5,1.8-1.4,5.5-2.7,11.1-4.1,16.6-.5,2,.4,2.6,2.4,2.6,7.5,0,14.9.1,22.4.2,4.3,0,8.6,0,13.7,0ZM36.7,121.7h38.6c-2.3-7.1-4.3-13.4-6.6-19.6-.2-.7-1.6-1.2-2.5-1.3-2.6-.1-5.1,0-7.7,0-5.8,0-11.6,0-17.4.3-.8,0-2.1.8-2.2,1.3-.8,6.5-1.5,13-2.1,19.2ZM476.4,148.8c0-11.4-6.1-17.3-15.6-16.2-5.6.6-11,3.8-11.9,9.5-.5,3.3-1,6.8-.5,10.1,1.6,10.7,14.4,14,21,9.2,5-3.6,6.5-8.5,7-12.5ZM176.3,150.3c-.9-3.3-1.7-6.7-2.7-10-.3-.9-1.2-1.8-2.1-2.3-2.7-1.5-5.4-2.9-8.3-4.1-3.2-1.4-6.6-.8-8.8,1.5-2.8,2.9-5.3,6.4-7.1,10.1-2.9,6.3-.1,12.6,6.1,15.5,4,1.9,8,2.3,12.4,1.4,6.8-1.4,10-5.1,10.5-12.2ZM86.1,133.7c-7.4,0-12,3.6-13.9,10.7-.3,1.3-.5,2.6-.8,3.9-1.6,7.2,4.5,13.2,10.2,15.1.6.2,1.3.2,2,0,5.3-1,10.2-3,14.2-6.7,1.1-1.1,1.6-2.9,2.2-4.5,1.3-3.1-.3-6-1.1-8.9-1.9-6.9-5.6-9.6-12.8-9.6ZM259.1,147.3s0,0,0,0c0,.8,0,1.7,0,2.5,0,.7.2,1.5.3,2.2,1.5,6.9,6.8,11,13.8,10.8,6.8-.2,13.8-5.9,14.7-12,.9-5.7-2.3-11.8-7.4-15-4.9-3.1-9.5-1.9-14.7-.3-4.5,1.5-6.2,4.1-6.7,8.3-.1,1.2-.2,2.3-.2,3.5ZM400.9,148.3c0-4.7-2.7-9.7-8-13.4-5.2-3.7-12.7-2.6-16.7,2.2-6.3,7.6-3.5,21,5.3,25.3,1,.5,2.3.6,3.3.5,2.6-.5,5.2-1.2,7.7-1.9,5.7-1.6,8.2-5,8.3-12.6ZM303.1,236.1c0-4.4,0-7.8,0-11.3,0-1.7-.7-2.4-2.3-2.3-5.8.3-11.6.5-17.4.7-9.4.3-18.9.5-28.3,1-.9,0-2.3,1-2.7,1.9-.7,1.8-1,3.8-1.4,5.8-.8,4-.7,4.1,3.4,4.5,2.1.2,4.3.3,6.5.3,8.7-.1,17.4-.4,26.1-.5,5.1,0,10.2,0,16.1,0ZM278,278.6c4.5-.3,8.1-.3,11.6-.7,5.1-.5,6.3-2.2,5.2-7.4-.4-1.7-1.1-3.3-2.1-4.7-3.9-5.8-10-7.3-16.4-8-4.9-.5-8.9.5-11,5.6-.4.9-1.3,1.6-1.6,2.5-.9,2.8-1.7,5.7-2.3,8.5-.3,1.5.4,2.5,2.1,2.6,5.1.5,10.2,1.1,14.5,1.5ZM266.1,284.5c3,10.5,6.6,20.3,12.2,29.8,4.1-10.2,7.9-19.9,11.9-29.8h-24.1ZM73.4,129.6c-7.9.5-15.2.9-22.5,1.3,0,.3,0,.5,0,.8,4.3,1.9,8.6,3.9,12.9,5.8.5.2,1.4,0,1.8-.3,2.5-2.3,5-4.7,7.9-7.6ZM475.5,129.4c.8.9,1.2,1.5,1.7,2q4.6,5,10.9,2.6c3.1-1.2,6.2-2.5,9.3-3.7,0-.3-.1-.6-.2-.9h-21.8ZM288.1,248.6h-14.4c0,.3,0,.5,0,.8,4.8.5,9.6,1.1,14.5,1.6v-2.4ZM149.2,130h-7.7c4.3,3.9,4,3.8,7.7,0ZM400.6,128.9c3.7,3.9,4.7,4,8.6.6-3.1-.2-5.9-.4-8.6-.6Z"/>
      <path d="M373.9,25c5.4,1.1,10.3,3.3,14,7.4,3.1-1.8,4.4-5.7,8.4-6.5,0,4.5,0,8.8,0,13,0,2.4,0,4.8,0,7.2,0,.6-.6,1.2-.9,1.7-.6-.3-1.4-.6-1.7-1.1-.7-1.1-1.2-2.4-1.9-3.5-3.1-5.2-6.8-9.8-12.4-12.6-3.9-1.9-8.1-2.5-12.3-1.1-2.9.9-4.2,3.1-4.6,5.9-.3,2.7,1.2,4.6,3.5,5.5,3.2,1.3,6.6,2.1,10,3.1,4.2,1.2,8.6,2,12.7,3.5,12.1,4.5,16.2,20.3,8,30.4-4.5,5.5-13.4,7.7-21.3,4.6-3.4-1.3-6.4-3.7-9.5-5.8-1.4-1-2.2-1.1-3.3.2-1.4,1.6-2.8,3.1-4.3,4.5-.7.6-1.7.7-2.6,1.1-.2-.7-.6-1.5-.6-2.2,0-7,0-13.9,0-20.8,2-.9,2.8,0,3.5,1.5,2.3,4.7,4.8,9.3,8.9,12.8,4.3,3.7,9.1,6.5,15,6.5,1.9,0,4-.4,5.8-1.1,4.3-1.7,5-7.2,1.4-9.9-1.7-1.2-3.8-2.1-5.8-2.6-4.5-1.2-9.1-2-13.6-3.1-1.8-.4-3.5-1.1-5.2-1.7-7.2-2.6-10.9-7.8-11.4-15.4-.5-7.4,1.9-13.7,8-18,2.2-1.6,5.1-2.1,7.7-3.2,1.5,0,3,0,4.5,0ZM389.4,55.5c0-.3,0-.6.1-.9-4.5-2.4-9.5-1-14.3-1.3-4.9-.2-9.8,0-14.7,0l-.2,1c.8.4,1.6,1.1,2.5,1.1,8.9,0,17.7,0,26.6,0ZM367.5,58.1c0,.4,0,.8,0,1.3,9.1,1.9,18.4.5,27.7.3-.8-.9-1.6-1.4-2.6-1.6-1-.2-2,0-3,0-7.4,0-14.7,0-22.1,0ZM358,49.1c.3.5.5,1.4.7,1.4,4.1,0,8.1,0,12.7,0-3.9-2.1-9.5-2.6-13.4-1.4ZM386.1,63.3c3.2,2.2,6.7,2.2,10.2,1.9.3,0,.8-.7.8-1,0-.4-.6-.9-.9-.9-3.3,0-6.7,0-10,0ZM361.4,46.1c-.9-2.6-2.2-2.9-4.5-.7,1.4.2,2.8.4,4.5.7Z"/>
      <path d="M163.5,30v-3c.9,0,1.7-.3,2.5-.3,11.6.2,23.3.2,34.9.6,8,.3,11.7,4.2,12.3,12.2.5,7.2-1.2,13.2-8.4,16.5-.5.2-1.1,1.5-.9,2.1,1.6,4.8,3.3,9.6,5.2,14.2,1.1,2.6,3,4.7,5.8,5.5,2.2.7,2.3,1.9,1.7,4-6,0-11.9,0-17.9,0-.6,0-1.4-1.2-1.8-2-2.7-6.9-5.3-13.8-8-20.7-.3-.9-1-1.6-1.7-2.8-.5.9-.8,1.1-.8,1.4,0,5.4,0,10.8,0,16.2,0,2.5,1.5,4.1,4,4.2,2.5.2,2.8,1.5,2.1,3.6h-29.1v-3.2c1.5-.1,2.9-.2,4.4-.4,1.7-.2,2.8-1.1,3-2.9.3-3.1.6-6.1.6-9.2,0-9.2,0-18.4,0-27.7,0-.6,0-1.2,0-1.7-.3-5.1-1.1-5.8-6-6.3-.6,0-1.3-.2-2-.3ZM186.4,52.7c4.6,1.2,8.3-.3,9.7-4,1.7-4.3,1.6-8.8,0-13.1-1.3-3.5-4.7-5.5-8-4.9-.7.1-1.7,1.2-1.7,1.8-.1,6.7,0,13.4,0,20.2Z"/>
      <path d="M266.5,56.8c2.2,5.6,4.1,11.2,6.7,16.6.9,1.9,3.1,3.5,5.1,4.5,2,1,2.3,2,1.6,4.3-5.8,0-11.8,0-17.7-.1-.7,0-1.5-1.4-1.9-2.3-2.8-6.9-5.5-13.9-8.2-20.8-.3-.8-1.1-1.5-1.6-2.2-.3.1-.6.3-.9.4,0,3.6,0,7.2,0,10.9,0,1.9,0,3.8.1,5.7,0,2.6,1.4,4.3,4,4.5,2.8.1,2.8,1.6,2.3,3.8-.7,0-1.5.1-2.2.1-8.1,0-16.3,0-24.4,0-1.2,0-2.5.3-2.5-1.7,0-1.8.9-1.9,2.3-2,4.3-.2,5.5-1.2,5.6-5.5.1-7.8,0-15.6,0-23.4,0-4.3,0-8.6,0-13-.1-4.8-.9-5.6-5.6-6.1-1.2-.1-2.4,0-2.3-1.8,0-1.8,1.2-1.7,2.4-1.7,11,0,21.9.2,32.9.2,13.6,0,15.4,9.2,14.3,18-.6,5.1-3.3,8.8-8.2,10.8-.4.2-.9.4-1.7.9ZM249.7,52.7c4.9,1.4,8.6-.5,10.1-5,1.2-3.8,1.1-7.7,0-11.5-1.1-3.8-4.7-6.2-8.3-5.6-.6.1-1.6,1-1.6,1.5-.1,6.9,0,13.7,0,20.5ZM244.6,68.6h-7.3c.8,1.7,3.7,2.5,5.9,1.7.5-.2.8-1,1.3-1.7ZM240.8,52.1c-1,.5-2.1.9-3.2,1.4,1.1.3,2.2.8,3.3.8,1.1,0,2.2-.6,3.3-.9-1.1-.4-2.1-.7-3.5-1.2ZM237.8,48c0,1.9.1,2.1,1.9,1.9,1.5-.2,3.9,1.3,4.7-1.9h-6.6ZM240.7,45c.7,0,1.4.1,2,0,.5-.1,1-.6,1.5-.9-.5-.3-.9-.9-1.4-1-1.1-.2-2.2-.3-3.2-.2-.7,0-1.3.6-1.9.9.6.4,1.2.8,1.8,1.1.4.1.8,0,1.2,0ZM241,57.8c-1.3.6-2.3,1.1-3.4,1.5,1.1.4,2.2,1,3.4,1,1.1,0,2.2-.6,3.2-.9-1-.5-2-1-3.2-1.6ZM240.9,40.3c1.2-.5,2.2-.9,3.3-1.4-1.1-.3-2.2-.9-3.3-.9-1.1,0-2.2.6-3.3,1,1,.4,2,.8,3.3,1.3ZM241,65.8c1.2-.6,2.3-1.1,3.3-1.6-1.1-.3-2.1-.6-3.2-.9,0,0-.2,0-.2,0-1.1.3-2.1.6-3.2.9,1,.5,2.1,1,3.3,1.6ZM240.9,75.5c1.1-.6,2.1-1.1,3-1.7-1.1-.3-2.1-.9-3.2-.8-1,0-2.1.7-3.1,1,1,.5,2,.9,3.2,1.5ZM237.2,33.3c.3.8.5,1.5.6,1.5,2,.1,3.9.2,5.9.1.2,0,.5-.7.4-.9,0-.3-.6-.6-.9-.6-1.9,0-3.9,0-6.1,0ZM236.7,77.9c0,.3,0,.5,0,.8h7.2v-.7c-2.4-.2-4.9-1.1-7.3,0ZM244,30.2c0-.2,0-.4,0-.6h-7c0,.2,0,.4,0,.6h6.9Z"/>
      <path d="M96.4,78.7v3c-1.5.1-2.9.3-4.4.3-8.8,0-17.6,0-26.4,0-1,0-2.3.3-2.3-1.5,0-1.4.3-2.2,1.9-2.2,2.2,0,2.7-1.1,2-3.1-2.1-6.2-5.8-11.5-9.7-16.8-2.2,1.3-3.2,2.8-3,5.3.2,2.2,0,4.5,0,6.7-.1,6.2.5,7.1,6.5,8.1v3.1h-29.3c-.6-3.1-.5-3.3,2.2-3.4,4.2-.2,5.4-1.1,5.5-5.6.3-7.7.2-15.4.2-23.2,0-4.6.2-9.3-.1-13.8-.3-4.4-.8-4.6-5.2-5.1-.8,0-1.6-.2-2.6-.4v-3.3h30.6c0,1,.1,2,.2,3.3-1.4.2-2.7.5-4,.5-2.1,0-3.2,1.1-3.6,3.1,0,.4-.3.8-.3,1.2,0,6.7,0,13.4,0,20.8,1.8-1.5,3.2-2.7,4.6-3.9,4.4-3.7,8.3-7.8,10.7-13,.7-1.6,1-3.8.6-5.4-.3-1.1-2.1-2.3-3.4-2.6-3-.8-3.1-.6-2.3-3.9h27.5c.8,3.1.7,3.2-2.2,3.8-4.5.9-8.3,2.9-11.6,6-2.9,2.8-5.8,5.7-8.6,8.7-.5.5-.7,1.7-.4,2.3,3.8,6.9,7.6,13.8,11.7,20.6,3.4,5.6,8.2,9.3,15.1,10.2ZM44.7,45.6c0-.2.2-.3.2-.5.7,0,1.4.2,2,0,.6-.2,1-.7,1.5-1.1-.5-.3-1-.8-1.6-1-.6-.2-1.3-.2-2,0-1.2.3-2.3.7-3.4,1,1.1.5,2.2,1.1,3.3,1.6ZM44.5,50.4c0-.2.1-.3.2-.5.7,0,1.5.1,2.2,0,.6-.2,1-.7,1.6-1-.5-.3-.9-.8-1.5-.9-.7-.2-1.5-.1-2.2,0-1.1.2-2.3.6-3.4.9,1,.5,2.1,1,3.1,1.5ZM45.1,37.5c0,.1,0,.3-.1.4-.7,0-1.4-.1-2,0-.6.2-1.1.6-1.7,1,.5.3,1,.8,1.6,1,.6.2,1.3.2,2,0,1.2-.3,3,1,3.4-1.1,0-.3-2-.9-3.1-1.3ZM44.8,65.9c1.4-.5,2.5-.9,3.7-1.4-.8-2-2.5-.9-3.8-1-1.1,0-2.2.6-3.3.9,1.1.5,2.2.9,3.4,1.4ZM45.1,67.8c-1.4.5-3.7,1.2-3.6,1.4.4,2.2,2.3,1,3.6,1.1,1.1,0,2.2-.6,3.3-.9-1.1-.5-2.1-1-3.3-1.5ZM44.6,60.8c0-.1.1-.3.2-.4.8,0,1.7.1,2.5,0,.4,0,.8-.6,1.2-.9-.4-.4-.7-.9-1.1-1-.8-.2-1.7-.2-2.5,0-1.2.2-2.3.6-3.4,1,1,.5,2.1,1,3.1,1.5ZM44.9,72.8c-1.1.5-2.2.9-3.2,1.3,1,.3,2.1,1,3.1,1,1.1,0,2.2-.6,3.4-.9-1-.4-2.1-.8-3.2-1.3ZM44.9,54.9c1.4-.5,2.4-.8,3.5-1.2-1.1-.3-2.2-.8-3.4-.9-1.2,0-2.4.4-3.5.7,1.1.5,2.3.9,3.4,1.4ZM48.4,34.6c0-.4-.1-.9-.2-1.3-1,0-2.1-.1-3.1,0-1.1.2-2.2.6-3.3,1,1.1.3,2.2.7,3.3.8,1.1,0,2.2-.3,3.3-.5ZM41.5,29.6c3.3,1.5,6,1.4,7,0h-7ZM40.9,78.1c0,.2,0,.4,0,.6h7.6c0-.2,0-.4,0-.6h-7.6Z"/>
      <path d="M445.7,64c-1.9.7-2.8,0-3.4-1.5-1.4-3.2-3.6-5.6-6.8-6.9-2.5-1-3.2-.6-3.2,2.1,0,6.1,0,12.1,0,18.2,0,1.8.5,2.5,2.4,2.5,4.9,0,9-1.8,12.2-5.3,3-3.3,5.4-7.1,8.1-10.7.6-.8,1.7-1.2,2.6-1.8.4.9,1,1.8,1.1,2.7,0,5.6,0,11.1,0,16.7,0,1.3-.3,2.1-1.8,2.1-15.5,0-30.9,0-46.4,0-.1,0-.3-.1-.4-.2q-.6-3.1,2.5-3.5c4-.5,4.8-1.1,4.9-5.1.2-12.4.3-24.8.1-37.1,0-4.6-1.2-5.4-5.8-5.5-.6,0-1.1,0-1.8-.1v-3.5h47.7v20.8c-1.9.9-2.3-.5-3.1-1.6-2.8-3.9-5.5-7.8-8.6-11.5-3.5-4-8.1-4.7-13.5-3.8,0,4,0,8.1,0,12.1,0,2.2,0,4.3,0,6.5,0,1.7.6,2,2.1,1.7,3.2-.8,5.2-3.1,6.9-5.7.5-.8.8-1.8,1.5-2.6.4-.4,1.3-.7,1.9-.6.4,0,.9.9.9,1.4,0,6.8,0,13.6,0,20.5Z"/>
      <path d="M319.1,27.3c0,.9,0,1.9-.1,3-.8,0-1.3.1-1.9.2-4.6.3-6,1.2-6,5.8-.2,11.3,0,22.6,0,33.9,0,1,.3,2,.6,2.9,2.1,6.8,9.1,8.6,14.3,3.7,2.8-2.6,4-6.1,4.5-9.8.4-3.2.7-6.4.7-9.7.1-5,0-10,0-14.9,0-.8,0-1.7-.1-2.5-.6-4.8-2.4-8.7-7.9-9.6v-3.4h18.9c.5,1.7.7,3.1-1.6,3.9-2.9,1-4.6,3.4-5,6.4-.6,4.6-.7,9.2-1,13.9-.3,5.6,0,11.3-1,16.8-2.1,12.7-9.8,16.3-21.5,15.6-8.8-.5-14.4-6.3-15.3-16.4-.7-8.7-.4-17.6-.6-26.4,0-2.4-.3-4.8-.6-7.2-.2-1.8-1.2-2.8-3.1-2.9-1.1,0-2.2,0-3.2-.5-.6-.3-1.2-1.2-1.2-1.9,0-.5.8-1.5,1.3-1.5,9.8,0,19.6,0,29.4,0,0,0,.1.1.4.3Z"/>
      <path d="M157.7,78.8v3.2h-30.6c-.5-2-.6-3.4,2.2-3.7,3.7-.5,4.2-1.6,3.1-5.1q-1.8-5.7-7.9-5.7c-2.2,0-4.5,0-6.7,0-2,0-2.6.9-2.4,2.7.4,5,1.8,6.9,6.7,8.2,2.2.6,1.2,2.1,1.4,3.6h-21.6c-.7-2-.3-3.3,1.7-4,2.7-1.1,4.5-3.1,5.6-5.7,5.1-12.3,10.2-24.5,15.3-36.8,1-2.5,2-5.1,3.1-7.6.4-.9,1.4-1.6,2.1-2.4.7.8,1.6,1.4,1.9,2.3,4.6,11.6,9.1,23.2,13.7,34.8,1.1,2.9,2.3,5.7,3.4,8.6,2,5,3.4,6.3,8.8,7.7ZM123,49.2c-.2,0-.4,0-.7,0-1.8,4.8-3.7,9.5-5.5,14.4h11.8c-2-5-3.8-9.7-5.7-14.4Z"/>
      <path d="M523.1,81.8h-48.1q-.7-3.2,2.4-3.7c4-.6,4.9-1.3,4.9-5.4,0-12.7,0-25.4-.2-38.1,0-3-1.1-4-4.1-4.2-1.1,0-2.1-.2-3.3-.3v-3.2h30.3c.8,2.4.4,3.4-2.2,3.5-4,.2-4.9,1-5.3,5.1-.3,2.7-.3,5.5-.3,8.2,0,10.6,0,21.3,0,31.9,0,2.1.7,2.8,2.7,2.8,4.7,0,8.7-1.8,11.8-5.2,2.8-3.1,5.2-6.6,7.7-10,.4-.6.7-1.4,1.2-1.9.4-.4,1.2-.8,1.7-.7.4,0,.8,1,.8,1.5,0,6.5,0,12.9,0,19.6ZM491.6,34.1h-6.3c-.1.2-.2.5-.3.7.6.4,1.2,1.1,1.7,1,1.6-.2,3.9,1.1,4.9-1.8ZM488.4,72.4c0,.1-.1.3-.2.4-.4,0-.9-.1-1.2,0-.6.2-1.2.6-1.8.9.6.4,1.1.8,1.8,1.1.3.2.9.2,1.2,0,1-.3,1.9-.7,2.9-1-.9-.5-1.8-.9-2.7-1.4ZM488.3,70h0c.3,0,.7.1,1,0,.6-.3,1.2-.7,1.9-1-.6-.3-1.1-.9-1.7-1-1-.2-2-.2-3,0-.4,0-.7.7-1.1,1,.4.3.7.8,1.2,1,.5.2,1.1,0,1.7,0ZM485.5,39.1c1.3,2.5,3.6,1,5.6,1.1-1.3-2.5-3.6-1-5.6-1.1ZM488.2,55.3s0,0,0,0c.4,0,.9.1,1.2,0,.6-.2,1.1-.6,1.7-.9-.6-.3-1.1-.8-1.7-.9-1-.1-2,0-3,0-.3,0-.9.6-.9.9,0,.3.5.8.9.9.5.2,1.1,0,1.7,0ZM488.3,63.3c-.4,0-.9-.1-1.2,0-.6.2-1.1.6-1.6.9.6.3,1.1.8,1.7.9.8.2,1.6.1,2.4,0,.5,0,1-.5,1.5-.8-.5-.3-1-.8-1.6-1-.3-.1-.8,0-1.2,0ZM488.4,43.8h0c-.4,0-.9-.1-1.2,0-.6.2-1.1.7-1.6,1,.5.3,1,.9,1.6,1,.9.2,1.8.1,2.7,0,.4,0,.8-.6,1.1-1-.4-.3-.7-.8-1.2-1-.4-.2-1,0-1.5,0ZM491.6,31.2c0-.2,0-.4-.1-.7h-7.1c0,.2,0,.4,0,.7h7.2ZM488,60.1c.6,0,1.2.1,1.7,0,.5-.2.9-.6,1.4-.9-.5-.3-.9-.8-1.5-.9-1-.1-2-.1-2.9,0-.4,0-.8.5-1.3.8.4.3.8.8,1.3,1,.3.2.8,0,1.2,0ZM488.2,50.5c0,.1,0,.2,0,.3.9-.3,1.8-.7,2.8-1-.9-.4-1.9-.7-2.8-1.1-.1,0-.3,0-.5,0-.8.3-1.5.6-2.2.9.7.3,1.5.6,2.2.9.1,0,.3,0,.5,0ZM491.1,78.2c0-.4,0-.8,0-1.2l-6.5.5c0,.2,0,.5,0,.7h6.5Z"/>
      <path class="st0" d="M374.3,129.8c-1.5,1.6-2.8,2.8-3.8,4.2-5.4,7.1-6.7,15.1-4.7,23.6.6,2.3,0,3.6-1.8,5-19.7,14.8-39.4,29.7-59.1,44.6-1.7,1.3-3.4,2.5-4.8,4-3.2,3.6-7.1,3.7-11.5,3.1.1-.5.2-1,.3-1.5,11.1-27.2,22.4-54.2,36-80.2,1.1-2.1,2.3-3,4.7-3,14.3,0,28.6,0,42.9,0,.4,0,.8,0,1.7.2Z"/>
      <path class="st0" d="M181.8,159.6c5.8-8.4,2.6-15.8-2.1-22.8-1.7-2.4-3.9-4.4-6.2-6.9.8-.1,1.4-.3,2-.3,15,0,29.9,0,44.9,0,1.6,0,2.4.5,3,1.9,11.9,27,23.8,53.9,35.7,80.9.3.6.4,1.3.8,2.4-4.7-.8-7.8-3.4-11-6-2-1.7-4.1-3.3-6.4-4.7-6.1-3.9-12.9-7.1-18.4-11.8-12.6-10.8-26.3-20.3-39.4-30.4-.9-.7-1.8-1.5-2.8-2.3Z"/>
      <path class="st0" d="M289,129.6h26.6c-.4,1.4-.6,2.3-1,3.1-7.6,17.8-15.3,35.5-22.9,53.3-3.7,8.7-7.3,17.5-10.8,26.2-.7,1.7-1.6,2.1-3.4,2.5-5.2,1.1-7.7-1-10-5.8-12.2-24.9-23.7-50.2-33.5-76.1-.3-.8-.6-1.6-1-2.8h29c-1.1.6-1.7,1-2.3,1.2-4.2,1.8-6.6,5-8.1,9.2-3.1,8.8-1.9,16.8,4.6,23.5,6.7,7,15.1,8.6,24.1,5.7,9.3-3,14.3-10,15.6-19.5,1-7.2-.6-13.7-6.1-18.9-.2-.2-.5-.5-.7-.7,0-.1,0-.3-.2-1Z"/>
      <path class="st0" d="M97.8,130.2c.7-.2,1.1-.4,1.5-.4,9.1-.2,18.2-.5,27,2,4.2,1.2,8.1,3.6,12.1,5.6,1.8.9,2.1,2.3,1.6,4.4-1.8,8.6-.8,16.6,5.8,23.1,5.3,5.2,12.2,6.7,19.3,6.3,2.6-.1,5.3-1.9,7.7-3.3,2.6-1.5,4.8-1.5,7.1.3,1.6,1.2,3.4,2.2,4.7,3.7,8.5,9,19,15.6,28.8,23,5.8,4.4,11.8,8.7,17.8,12.8,2,1.4,4.4,2.3,6.6,3.5,1.3.8,2.5,1.7,3.5,3.1-.7-.2-1.4-.4-2-.7-42.9-18.7-85.8-37.4-128.7-56-2-.9-2.8-1.7-2.4-4.2,1.4-8.5-1.4-15.5-8-21-.7-.6-1.5-1.2-2.5-2.1Z"/>
      <path class="st0" d="M313.1,210.3c.7-.4,1.4-.8,2.1-1.3,19.1-13.7,38.1-27.5,57.2-41.2.8-.6,2.3-.4,3.4-.1,3.1.8,6.1,2.6,9.2,2.8,12.1,1,22.9-8.6,23.8-20.8.2-2.6-.2-5.2,0-7.7,0-1.2.5-2.6,1.3-3.5,3.1-3.7,7.1-5.9,11.7-7.2,9-2.5,18.2-2.5,28.1-2.3-1,1-1.6,1.6-2.1,2.2-5.6,5.6-7.9,12.2-6.3,20,.4,1.8,0,2.7-1.6,3.5-11.5,5.6-22.9,11.4-34.5,16.8-14.7,6.9-29.4,13.6-44.2,20.2-10,4.4-20.3,8.3-30.4,12.4-4.9,2-9.8,4.2-14.7,6.2-.7.3-1.5.5-2.2.8-.2-.3-.4-.5-.6-.8Z"/>
      <path class="st0" d="M514.4,120.9c-1,0-1.5.1-2.1.1-11.4,0-22.8,0-34.2,0-1.9,0-2.8-.5-2.4-2.6.8-5.2,1.5-10.4,2.3-15.5.5-3.3,1.1-3.8,4.3-3.8,8.6,0,17.1,0,25.7,0,1.9,0,2.5.6,2.9,2.4.9,5.1,2,10.1,3,15.2.2,1.3.4,2.6.6,4.2Z"/>
      <path class="st0" d="M368,121.7c-11.6,0-22.9,0-34.2,0-3.7,0-3.8-.2-3.5-3.7.5-5.2,1.3-10.3,2-15.5.2-1.6,1-2.2,2.7-2.1,9,0,17.9,0,26.9,0,1.6,0,2.3.5,2.6,2.1,1.1,5.3,2.3,10.5,3.4,15.8.2.8,0,1.8,0,3.5Z"/>
      <path class="st0" d="M84.7,121.4c.7-4.4,1.3-8.4,1.9-12.4.2-1.3.5-2.6.7-3.9.8-4.5.8-4.5,5.5-4.5,7.4,0,14.8,0,22.2,0,2.3,0,3.6.9,4.5,3.1,2.4,5.5,3.6,11.3,4.7,17.6-13.2,1.1-26,1.2-39.5,0Z"/>
      <path class="st0" d="M445.5,121.4c-5.5,0-10.9,0-16.4,0-2.1,0-2.7-.7-2.3-2.6,1.1-5.6,2.1-11.3,3.2-16.8.1-.6,1.1-1.5,1.7-1.5,9.4-.2,18.7-.2,28.1-.4,1.8,0,2.4.7,2.7,2.4.7,5.2,1.7,10.3,2.5,15.5.4,2.9.1,3.2-2.8,3.2-5.6,0-11.1,0-16.7,0v.3Z"/>
      <path class="st0" d="M318.8,121.8c-4.6,0-8.5,0-12.3,0-7.9,0-15.8,0-23.7,0-1.9,0-2.5-.7-2.2-2.5.8-5.6,1.6-11.2,2.3-16.8.2-1.6.8-2.1,2.4-2.1,8.9,0,17.8.2,26.7.1,2.1,0,3,.8,3.3,2.7,1.1,5.9,2.2,11.8,3.5,18.5Z"/>
      <path class="st0" d="M134,121.8c.9-6.1,1.6-11.9,2.6-17.7.2-1,1.8-2.4,2.9-2.5,4.8-.6,9.7-.9,14.6-1,4.2,0,8.5.3,12.7.4,1.6,0,2.1.7,2.4,2.4.7,4,1.7,7.9,2.8,11.8,1.7,6.4,1.6,6.4-4.8,6.5-10.6.1-21.2.3-31.9.4-.3,0-.6-.1-1.3-.2Z"/>
      <path class="st0" d="M416.2,120.9c-1.1,0-1.7.1-2.4.1-11.3,0-22.6,0-33.8,0-2.2,0-2.9-.8-2.5-2.7.5-2.4,1.1-4.7,1.6-7,.6-2.9,1.2-5.8,1.6-8.8.2-1.3.5-2,1.9-2,9.4.1,18.7.2,28.1.4.7,0,1.7.8,2,1.5,2.4,5.8,2.8,12,3.6,18.5Z"/>
      <path class="st0" d="M250.3,121.6c-5.4,0-10.8,0-16.2,0-2,0-2.8-.7-2.4-2.6.5-3,1.1-6,1.6-9,.5-2.5.8-5.1,1.4-7.6.2-.7,1-1.6,1.5-1.6,9-.2,18.1-.3,27.1-.2.7,0,1.9,1.1,2.1,1.8,1.4,5.5,2.5,11.1,3.7,16.7.4,1.9-.4,2.5-2.3,2.5-5.6,0-11.1,0-16.7,0,0,0,0,0,0,0Z"/>
      <path class="st0" d="M221.2,121.8c-5.1,0-9.4,0-13.7,0-7.5,0-14.9-.2-22.4-.2-2,0-2.9-.6-2.4-2.6,1.3-5.6,2.7-11.1,4.1-16.6.3-1.3,1.1-1.9,2.5-1.8,8,.1,16.1.2,24.1.2,2.2,0,3.7.9,4.1,2.8,1.3,5.8,2.3,11.6,3.7,18.2Z"/>
      <path class="st0" d="M36.7,121.7c.7-6.3,1.3-12.8,2.1-19.2,0-.5,1.4-1.3,2.2-1.3,5.8-.2,11.6-.2,17.4-.3,2.6,0,5.1-.2,7.7,0,.9,0,2.3.6,2.5,1.3,2.2,6.2,4.2,12.5,6.6,19.6h-38.6Z"/>
      <path class="st0" d="M476.4,148.8c-.4,4-2,8.9-7,12.5-6.6,4.8-19.4,1.5-21-9.2-.5-3.3,0-6.8.5-10.1.9-5.7,6.4-8.9,11.9-9.5,9.5-1,15.6,4.9,15.6,16.2Z"/>
      <path class="st0" d="M176.3,150.3c-.5,7-3.7,10.7-10.5,12.2-4.3.9-8.4.5-12.4-1.4-6.2-2.9-9-9.3-6.1-15.5,1.7-3.7,4.2-7.2,7.1-10.1,2.2-2.3,5.6-2.9,8.8-1.5,2.8,1.2,5.6,2.6,8.3,4.1.9.5,1.8,1.4,2.1,2.3,1.1,3.3,1.9,6.7,2.7,10Z"/>
      <path class="st0" d="M86.1,133.7c7.2,0,10.9,2.7,12.8,9.6.8,2.9,2.4,5.8,1.1,8.9-.6,1.5-1.1,3.4-2.2,4.5-3.9,3.8-8.8,5.8-14.2,6.7-.6.1-1.4,0-2,0-5.7-1.9-11.8-7.9-10.2-15.1.3-1.3.4-2.6.8-3.9,1.8-7.1,6.5-10.7,13.9-10.7Z"/>
      <path class="st0" d="M259.1,147.3c0-1.2.1-2.3.2-3.5.4-4.2,2.1-6.8,6.7-8.3,5.1-1.7,9.8-2.8,14.7.3,5.1,3.2,8.2,9.3,7.4,15-.9,6.1-7.9,11.8-14.7,12-7,.2-12.3-3.9-13.8-10.8-.2-.7-.3-1.5-.3-2.2,0-.8,0-1.7,0-2.5,0,0,0,0,0,0Z"/>
      <path class="st0" d="M400.9,148.3c0,7.7-2.6,11.1-8.3,12.6-2.6.7-5.1,1.4-7.7,1.9-1.1.2-2.3,0-3.3-.5-8.9-4.3-11.6-17.7-5.3-25.3,4-4.8,11.5-5.8,16.7-2.2,5.2,3.7,8,8.8,8,13.4Z"/>
      <path class="st0" d="M303.1,236.1c-5.8,0-10.9,0-16.1,0-8.7.1-17.4.4-26.1.5-2.2,0-4.3-.1-6.5-.3-4.1-.3-4.2-.5-3.4-4.5.4-2,.6-4,1.4-5.8.4-.9,1.7-1.9,2.7-1.9,9.4-.4,18.9-.7,28.3-1,5.8-.2,11.6-.4,17.4-.7,1.7,0,2.4.5,2.3,2.3,0,3.5,0,6.9,0,11.3Z"/>
      <path class="st0" d="M278,278.6c-4.2-.5-9.3-1-14.5-1.5-1.7-.2-2.5-1.1-2.1-2.6.6-2.9,1.4-5.7,2.3-8.5.3-.9,1.2-1.6,1.6-2.5,2.1-5.1,6.1-6.1,11-5.6,6.4.7,12.5,2.3,16.4,8,1,1.4,1.7,3.1,2.1,4.7,1.1,5.1,0,6.8-5.2,7.4-3.5.4-7.1.5-11.6.7Z"/>
      <path class="st0" d="M266.1,284.5h24.1c-4,9.9-7.8,19.6-11.9,29.8-5.6-9.5-9.2-19.3-12.2-29.8Z"/>
      <path class="st0" d="M73.4,129.6c-3,2.9-5.4,5.3-7.9,7.6-.4.3-1.3.5-1.8.3-4.3-1.9-8.6-3.8-12.9-5.8,0-.3,0-.5,0-.8,7.3-.4,14.7-.9,22.5-1.3Z"/>
      <path class="st0" d="M475.5,129.4h21.8c0,.3.1.6.2.9-3.1,1.2-6.2,2.5-9.3,3.7q-6.3,2.5-10.9-2.6c-.5-.5-.9-1.1-1.7-2Z"/>
      <path class="st0" d="M288.1,248.6v2.4c-4.9-.6-9.7-1.1-14.5-1.6,0-.3,0-.5,0-.8h14.4Z"/>
      <path class="st0" d="M149.2,130c-3.8,3.8-3.5,3.9-7.7,0h7.7Z"/>
      <path class="st0" d="M400.6,128.9c2.7.2,5.5.4,8.6.6-3.9,3.3-4.9,3.3-8.6-.6Z"/>
      <path class="st0" d="M389.4,55.5c-8.9,0-17.7,0-26.6,0-.8,0-1.6-.7-2.5-1.1l.2-1c4.9,0,9.8-.2,14.7,0,4.8.2,9.8-1.2,14.3,1.3,0,.3,0,.6-.1.9Z"/>
      <path class="st0" d="M367.5,58.1c7.4,0,14.7,0,22.1,0,1,0,2-.2,3,0,.9.2,1.8.7,2.6,1.6-9.3.2-18.6,1.5-27.7-.3,0-.4,0-.8,0-1.3Z"/>
      <path class="st0" d="M358,49.1c3.9-1.2,9.6-.7,13.4,1.4-4.6,0-8.6,0-12.7,0-.3,0-.5-.9-.7-1.4Z"/>
      <path class="st0" d="M386.1,63.3c3.3,0,6.7,0,10,0,.3,0,.9.5.9.9,0,.3-.5.9-.8,1-3.5.3-7,.3-10.2-1.9Z"/>
      <path class="st0" d="M361.4,46.1c-1.7-.3-3.1-.5-4.5-.7,2.3-2.1,3.6-1.9,4.5.7Z"/>
      <path class="st0" d="M186.4,52.7c0-6.8,0-13.5,0-20.2,0-.6,1-1.7,1.7-1.8,3.3-.7,6.8,1.4,8,4.9,1.6,4.3,1.6,8.8,0,13.1-1.4,3.7-5.1,5.3-9.7,4Z"/>
      <path class="st0" d="M249.7,52.7c0-6.8,0-13.7,0-20.5,0-.5,1-1.4,1.6-1.5,3.6-.6,7.2,1.7,8.3,5.6,1.1,3.8,1.3,7.7,0,11.5-1.5,4.5-5.2,6.3-10.1,5Z"/>
      <path class="st0" d="M244.6,68.6c-.6.7-.8,1.6-1.3,1.7-2.2.7-5.1,0-5.9-1.7h7.3Z"/>
      <path class="st0" d="M240.8,52.1c1.3.5,2.4.8,3.5,1.2-1.1.3-2.2.9-3.3.9-1.1,0-2.2-.5-3.3-.8,1.1-.5,2.1-.9,3.2-1.4Z"/>
      <path class="st0" d="M237.8,48h6.6c-.8,3.2-3.2,1.7-4.7,1.9-1.8.2-1.8,0-1.9-1.9Z"/>
      <path class="st0" d="M240.7,45c-.4,0-.9.1-1.2,0-.6-.3-1.2-.7-1.8-1.1.6-.3,1.3-.9,1.9-.9,1.1-.1,2.2,0,3.2.2.5,0,.9.6,1.4,1-.5.3-1,.7-1.5.9-.6.1-1.3,0-2,0Z"/>
      <path class="st0" d="M241,57.8c1.2.6,2.2,1.1,3.2,1.6-1.1.3-2.2.9-3.2.9-1.1,0-2.2-.6-3.4-1,1-.5,2.1-1,3.4-1.5Z"/>
      <path class="st0" d="M240.9,40.3c-1.2-.5-2.3-.9-3.3-1.3,1.1-.3,2.2-.9,3.3-1,1.1,0,2.2.6,3.3.9-1.1.5-2.1.9-3.3,1.4Z"/>
      <path class="st0" d="M241,65.8c-1.2-.6-2.3-1.1-3.3-1.6,1.1-.3,2.1-.6,3.2-.9,0,0,.2,0,.2,0,1.1.3,2.1.6,3.2.9-1,.5-2.1,1-3.3,1.6Z"/>
      <path class="st0" d="M240.9,75.5c-1.3-.6-2.3-1-3.2-1.5,1-.4,2.1-1,3.1-1,1,0,2.1.5,3.2.8-1,.5-2,1.1-3,1.7Z"/>
      <path class="st0" d="M237.2,33.3c2.2,0,4.2,0,6.1,0,.3,0,.8.4.9.6,0,.3-.3.9-.4.9-2,0-3.9,0-5.9-.1-.2,0-.3-.7-.6-1.5Z"/>
      <path class="st0" d="M236.7,77.9c2.4-1,4.9-.1,7.3,0v.7h-7.2c0-.3,0-.5,0-.8Z"/>
      <path class="st0" d="M244,30.2h-6.9c0-.2,0-.4,0-.6h7c0,.2,0,.4,0,.6Z"/>
      <path class="st0" d="M44.7,45.6c-1.1-.5-2.2-1.1-3.3-1.6,1.1-.3,2.2-.8,3.4-1,.6-.1,1.3-.2,2,0,.6.2,1.1.6,1.6,1-.5.4-.9.9-1.5,1.1-.6.2-1.3,0-2,0,0,.2-.2.3-.2.5Z"/>
      <path class="st0" d="M44.5,50.4c-1-.5-2.1-1-3.1-1.5,1.1-.3,2.2-.7,3.4-.9.7-.1,1.5-.1,2.2,0,.5.1,1,.6,1.5.9-.5.4-1,.9-1.6,1-.7.2-1.5,0-2.2,0,0,.2-.1.3-.2.5Z"/>
      <path class="st0" d="M45.1,37.5c1.1.5,3.2,1.1,3.1,1.3-.4,2.1-2.2.8-3.4,1.1-.6.2-1.3.2-2,0-.6-.2-1.1-.7-1.6-1,.6-.3,1.1-.8,1.7-1,.6-.2,1.3,0,2,0,0-.1,0-.3.1-.4Z"/>
      <path class="st0" d="M44.8,65.9c-1.2-.5-2.3-1-3.4-1.4,1.1-.3,2.2-1,3.3-.9,1.3,0,3-1.1,3.8,1-1.2.4-2.4.9-3.7,1.4Z"/>
      <path class="st0" d="M45.1,67.8c1.2.5,2.2,1,3.3,1.5-1.1.3-2.2,1-3.3.9-1.2,0-3.2,1.1-3.6-1.1,0-.2,2.2-.9,3.6-1.4Z"/>
      <path class="st0" d="M44.6,60.8c-1-.5-2.1-1-3.1-1.5,1.1-.3,2.3-.7,3.4-1,.8-.1,1.7-.1,2.5,0,.4,0,.8.7,1.1,1-.4.3-.8.8-1.2.9-.8.1-1.6,0-2.5,0,0,.1-.1.3-.2.4Z"/>
      <path class="st0" d="M44.9,72.8c1.2.5,2.2.9,3.2,1.3-1.1.3-2.2.9-3.4.9-1,0-2.1-.6-3.1-1,1-.4,2.1-.8,3.2-1.3Z"/>
      <path class="st0" d="M44.9,54.9c-1.1-.4-2.2-.9-3.4-1.4,1.2-.3,2.4-.7,3.5-.7,1.1,0,2.2.6,3.4.9-1.1.4-2.1.7-3.5,1.2Z"/>
      <path class="st0" d="M48.4,34.6c-1.1.2-2.2.5-3.3.5-1.1,0-2.2-.5-3.3-.8,1.1-.3,2.2-.8,3.3-1,1-.2,2.1,0,3.1,0,0,.4.1.9.2,1.3Z"/>
      <path class="st0" d="M41.5,29.6h7c-1,1.4-3.7,1.5-7,0Z"/>
      <path class="st0" d="M40.9,78.1h7.6c0,.2,0,.4,0,.6h-7.6c0-.2,0-.4,0-.6Z"/>
      <path class="st0" d="M123,49.2c1.8,4.7,3.7,9.4,5.7,14.4h-11.8c1.9-4.9,3.7-9.7,5.5-14.4.2,0,.4,0,.7,0Z"/>
      <path class="st0" d="M491.6,34.1c-1.1,2.9-3.3,1.6-4.9,1.8-.5,0-1.2-.7-1.7-1,.1-.2.2-.5.3-.7h6.3Z"/>
      <path class="st0" d="M488.4,72.4c.9.5,1.8.9,2.7,1.4-1,.4-1.9.8-2.9,1-.4.1-.9.1-1.2,0-.6-.3-1.2-.7-1.8-1.1.6-.3,1.1-.6,1.8-.9.4-.1.8,0,1.2,0,0-.1.1-.3.2-.4Z"/>
      <path class="st0" d="M488.3,70c-.6,0-1.2.1-1.7,0-.4-.1-.8-.6-1.2-1,.4-.4.7-1,1.1-1,1-.1,2-.2,3,0,.6.1,1.1.6,1.7,1-.6.3-1.2.7-1.9,1-.3.1-.7,0-1,0h0Z"/>
      <path class="st0" d="M485.5,39.1c1.9,0,4.2-1.5,5.6,1.1-1.9,0-4.2,1.5-5.6-1.1Z"/>
      <path class="st0" d="M488.2,55.3c-.6,0-1.2.1-1.7,0-.4-.1-.8-.6-.9-.9,0-.3.5-.8.9-.9,1-.1,2-.2,3,0,.6,0,1.1.6,1.7.9-.6.3-1.1.7-1.7.9-.4.1-.8,0-1.2,0,0,0,0,0,0,0Z"/>
      <path class="st0" d="M488.3,63.3c.4,0,.9-.1,1.2,0,.6.2,1.1.7,1.6,1-.5.3-1,.7-1.5.8-.8.1-1.7.2-2.4,0-.6-.1-1.1-.6-1.7-.9.5-.3,1-.7,1.6-.9.4-.1.8,0,1.2,0Z"/>
      <path class="st0" d="M488.4,43.8c.5,0,1-.1,1.5,0,.4.2.8.6,1.2,1-.4.3-.7.9-1.1,1-.9.2-1.8.2-2.7,0-.6-.1-1.1-.6-1.6-1,.5-.3,1-.8,1.6-1,.3-.1.8,0,1.2,0h0Z"/>
      <path class="st0" d="M491.6,31.2h-7.2c0-.2,0-.4,0-.7h7.1c0,.2,0,.4.1.7Z"/>
      <path class="st0" d="M488,60.1c-.4,0-.9.1-1.2,0-.5-.2-.9-.7-1.3-1,.4-.3.8-.7,1.3-.8,1-.1,2-.1,2.9,0,.5,0,1,.6,1.5.9-.5.3-.9.7-1.4.9-.5.2-1.1,0-1.7,0Z"/>
      <path class="st0" d="M488.2,50.5c-.2,0-.4,0-.5,0-.7-.3-1.5-.6-2.2-.9.7-.3,1.5-.6,2.2-.9.1,0,.3,0,.5,0,.9.3,1.9.7,2.8,1.1-.9.3-1.8.7-2.8,1,0-.1,0-.2,0-.3Z"/>
      <path class="st0" d="M491.1,78.2h-6.5c0-.2,0-.5,0-.7l6.5-.5c0,.4,0,.8,0,1.2Z"/>
    </g>
  </g>
</svg>