<?xml version="1.0" encoding="UTF-8"?>
<svg xmlns="http://www.w3.org/2000/svg" version="1.1" viewBox="0 0 1920 1080">
  <defs>
    <style>
      .cls-1 {
        fill: none;
      }

      .cls-1, .cls-2 {
        stroke: #020d2d;
        stroke-miterlimit: 10;
      }

      .cls-2 {
        fill: #fff;
      }
    </style>
  </defs>
  <!-- Generator: Adobe Illustrator 28.7.1, SVG Export Plug-In . SVG Version: 1.2.0 Build 142)  -->
  <g>
    <g id="Layer_1">
      <g>
        <path class="cls-2" d="M1431.3,471.1c-14.2,5.7-28.4,11.4-42.6,17.1-10.5,4.2-21,8.4-31.6,12.3-2.8,1-4.2,2.2-4,5.3.3,4.5,0,9,.3,13.5.3,8.2-2.2,15.3-8.5,20.5-12.1,9.9-25.5,17.5-41.9,15.4-9.9-1.3-18.8-5.8-26.1-12.8-3.2-3.1-6-2.9-9.8-1.1-9.2,4.6-18.7,8.6-28,13-12.7,5.9-25.3,12-38.1,17.6-30.2,13.3-60.5,26.3-90.6,39.6-21.3,9.4-42.4,19.5-63.7,28.9-11.1,4.9-22.5,9.3-33.9,13.3-4,1.4-4.6,3.4-4.8,7.2-.8,14.6-2.1,29.1-3.3,44.2-9.6,0-18.4,0-27.2,0-6,0-7.5,1.2-6.2,7.1,1.6,7.4,3.1,15.3,6.8,21.8,12,21.5,10.1,42.7-.3,63.6-11.3,22.8-23.3,45.3-35,68-.6,1.2-1.1,2.4-1.6,3.6h-2c-7.8-12.5-15.7-25.1-23.5-37.6-11.1-18-20.5-36.7-23.8-57.8-2.2-14.5-.6-28.3,9.6-39.9,1.5-1.8,2.8-3.7,4.2-5.6,6.1-8.1,6.3-8.8,5.1-20-4.8-.2-9.7-.4-14.6-.7-8.5-.6-16.9-1.3-25.4-1.9-2.9-.2-3.8-1.5-4-4.4-.5-11.8-1.3-23.6-1.8-35.4-.1-3-1.3-4.3-3.9-5.5-53.3-23.6-106-48.6-160-70.5-28-11.4-54.1-27.4-83.6-35.2-6.9-1.8-13.1-6.4-19.6-9.8-6.4-3.3-7.8-3.4-12.6,1.8-6.2,6.6-14,8.7-22.5,9.4-12.7,1.1-24.9-1.1-36.3-6.9-13.6-7-20.1-19.7-17.5-34.8.8-4.9-.5-7.3-4.8-9.2-21.7-9.8-43.3-19.8-65-29.7-2.7-1.2-5.3-2.7-8-4.1,0-1,0-2,0-3,.7-2,1.5-4,2-6,4.3-18.5,8.7-37,12.8-55.5.9-3.9,2.8-5.3,6.4-5.2,6.7,0,13.3.2,20,.2,17.6,0,35.3.2,52.9-.2,4.4,0,7.3,1,8.6,5,1.8,5.4,3,10.9,4.5,16.3.6,2.4,1.1,4.9,1.6,7.3.8-4.2.7-8.2.8-12.1,0-3.8-.2-7.7.3-11.5.9-7.1,1.5-7.3,8.6-6.6,1.8.2,3.7.3,5.5.3,22.2.3,44.3.4,66.5.8,9.5.2,10.1.6,12.8,9.8,1.8,6,2.8,12.2,4.2,18.3,1.6-3.9,2.1-7.9,2.5-11.9.4-4.6.5-9.3,1.3-13.9.3-1.5,2.6-3.6,4-3.6,19.6.1,39.3.6,58.9,1,6.7.2,13.3,1,19.9,1,6.2,0,8.3,2.9,8.8,8.7.4,5.1,1.7,10.2,2.6,15.2.5,0,1,0,1.6,0,1-3.1,2.2-6.2,3-9.4,3.9-14.5,3.8-14.9,19-15.2,20.1-.4,40.3-.3,60.5-.1,2.3,0,5,1.6,6.9,3.2,4.7,4,4.7,10,5.4,15.6.5,3.6,1,7.2,1.4,10.9,2.7-6.5,4.1-13,5.9-19.3,2.6-9.5,3.6-10.6,13.4-10.9,23.3-.6,46.6-.6,69.9-1,3,0,4,1.2,4.7,3.9,1.2,4.9,2.7,9.7,4.1,14.6h1.3c.6-4.8,1.4-9.4,1.8-14.1.3-3.5,2-5,5.4-5.1,26.7-.8,53.3-1.6,79.8,3,4.7.8,6.3,2.7,6.4,7.4,0,6.4,1,12.7,1.5,19,.8,0,1.5,0,2.3,0,.4-4.6,1.1-9.3,1.2-13.9.2-9.8,5.2-14.7,14.7-14.9,13.5-.2,27-1.4,40.4-.9,10.5.4,21,2.5,31.5,4.4,2.1.4,4.3,3.4,5.2,5.7,1.9,5.2,3.1,10.7,4.5,16,.4,0,.9,0,1.3-.1.7-5,1.6-10,2-15,.3-4.2,2.3-6.4,6.2-7.2,4.9-1,9.8-2.7,14.7-2.8,18.3-.4,36.6-.2,54.9-.2,9.3,0,11.4,1.7,14.1,10.9.7,2.2,1.1,4.5,1.5,6.8.8,4.4,1.6,8.9,2.4,13.3,1.3-1.4,1.6-2.7,1.8-4.1,1.1-5.9,1.9-11.9,3.2-17.7,1.4-6.1,4.9-9.1,10.1-9.1,24.8,0,49.7,0,74.5-.2,3.5,0,5.1,1.1,5.8,4.6,1.1,5.4,2.6,10.8,3.9,16.2h1.3c1.6-5.6,3.5-11.1,4.9-16.7.8-3.1,2.3-4.3,5.5-4.3,24.3,0,48.6-.2,73-.4,4,0,6.5,1.4,7.5,5.6,2.2,9.7,4.7,19.4,7,29.1,2.5,10.7,4.7,21.4,7.1,32.1v6ZM1132.1,474.3c-1.8-.2-2.6-.4-3.4-.4-28.3,0-56.6.1-84.9-.2-5.8,0-8.4,2.2-10.9,7-27,51.8-49.5,105.5-71.6,159.5-.4,1-.5,2.1-.8,3.3,9.1,1.5,17.1.9,23.5-6.5,2.6-3,6-5.3,9.1-7.7,39.2-29.7,78.3-59.4,117.7-88.9,4.1-3.1,5.4-5.7,4.3-11.1-4.4-19.9-.4-37.7,14.6-52.3.7-.7,1.3-1.4,2.5-2.8ZM902.5,644.6c-.3-1.4-.4-2.4-.8-3.2-24.1-54.7-48.2-109.4-72.3-164.1-1.2-2.8-3.1-3.3-5.8-3.3-29.8,0-59.6,0-89.4,0-1.3,0-2.7.2-4,.4l-.7,1.4c1.8,1.5,3.7,2.8,5.4,4.4,7.8,7.5,13.7,16.3,16.3,27,2.3,9.6,2.3,18.8-5.3,26.8,5.7,4.3,10.7,8.2,15.7,12,18.4,13.8,37.6,26.7,54.9,41.7,14,12.1,28.7,22.6,44.6,31.8,7.6,4.4,14.5,9.8,21.6,15,6,4.4,11.7,9.2,20,10.2ZM961,474.9c.9,1.1,1.5,2.2,2.4,3,15.4,14.3,15,41.1,4.9,56.9-11.6,18.2-33.3,26.6-53.4,20.3-23.4-7.3-35.3-28.9-30.1-53.7,2.4-11.5,7.5-20.6,19.2-24.8.7-.2,1.3-.8,2.8-1.8h-57.9c.8,2.4,1.4,3.9,1.9,5.5,19.6,52.1,42.7,102.7,67.1,152.8,4.8,9.8,9.9,13.9,20.5,11.7,3.4-.7,5.1-1.6,6.4-4.8,6-15.2,11.9-30.4,18.5-45.3,16.8-37.9,35.5-75,49.2-114.2.6-1.7,1.1-3.4,1.6-5-8-2.8-45-3.1-53.1-.4ZM578.4,474.3c.3,1.2.3,1.4.4,1.5,1.5,1.3,3.1,2.6,4.6,3.9,13,11.1,18.3,25.2,15.6,42-.7,4.6.4,6.3,4.5,8.1,86.2,37.4,172.3,75,258.4,112.6,1.2.5,2.6.9,3.8,1.3-1.5-2.3-3.4-3.9-5.5-5.2-7.3-4.6-14.7-9-21.8-13.8-12.2-8.4-24.4-16.8-36.3-25.6-17-12.5-34.7-24.2-49.3-39.8-2.8-3-6.5-5.2-9.8-7.7-4.8-3.7-9.7-4.3-14.7-.5-9.7,7.5-20.4,7.6-31.8,5.1-18.5-4-31.6-16.5-34.5-35-1.1-6.8-.9-14.1.4-20.8,1.2-6-.3-9.5-5.2-12.3-2.5-1.4-4.7-3.1-7.3-4.3-22.7-10.5-46.9-9.3-71.5-9.2ZM1010.3,636.2c.3.4.5.8.8,1.3,7.7-3.3,15.5-6.7,23.3-9.9,23.7-9.7,47.6-19,71.1-29.2,24.7-10.8,49.1-22.3,73.5-33.8,28.3-13.3,56.4-27,84.7-40.5,3.1-1.5,3.8-3.2,3.1-6.6-3.1-15.8,1.4-29.3,12.8-40.5,1.1-1.1,2.2-2.3,4-4.2-22.2-.2-43.4-.9-63.5,7.3-4.4,1.8-8.3,4.9-12.2,7.6-5.3,3.7-8,8.5-6.6,15.3.6,3,.2,6.3.1,9.5-1,28.2-28,47.3-48.5,43.5-5.9-1.1-11.7-3.5-17.4-5.8-2.9-1.2-5.1-1.3-7.8.6-36.9,26.6-73.8,53.1-110.7,79.7-2.4,1.7-4.5,3.9-6.7,5.8ZM1413.5,456.4c-2.7-13.5-5.4-26.2-7.6-39-.7-4-2.4-4.7-5.9-4.6-17.2.1-34.3,0-51.5,0-6.2,0-7.5,1.1-8.5,7.3-1.5,10-2.8,20.1-4.3,30.2-.9,6-.6,6.4,5.3,6.4,22.3,0,44.7,0,67,0,1.5,0,2.9-.2,5.5-.3ZM1119.5,458.1c0-3.4.3-5.2,0-6.9-2.2-10.6-4.8-21.1-6.9-31.7-.7-3.3-2-4.3-5.3-4.2-18,.1-35.9.1-53.9,0-3.3,0-5,1.1-5.4,4.3-1.3,10.5-2.9,21.1-3.9,31.6-.7,6.5-.3,6.8,6,6.8,22.9.1,45.9,0,69.5,0ZM630.9,458.1c-2.4-13.6-4.7-25.5-9.9-36.8-1.6-3.5-3.7-5.2-7.5-5.2-17.1,0-34.3,0-51.4-.2-3,0-4,1.2-4.4,4-1.3,8.2-3,16.4-4.3,24.6-.7,4.2-1,8.4-1.6,13.7h79.1ZM1313.7,456.9c0-2.5.3-4.7,0-6.7-1.6-10.3-3.5-20.7-5-31-.5-3.4-1.9-4.5-5.1-4.4-18.8.2-37.6.3-56.3.7-1.3,0-3.3,1.7-3.6,2.9-2.4,11.4-4.4,22.9-6.5,34.3-.7,3.7.8,5,4.6,4.9,19-.3,37.9-.4,56.9-.6,4.8,0,9.6,0,15.1,0ZM1020.7,458.1c-2.6-13.4-4.9-25.2-7-36.9-.8-4.2-2.9-5.6-7.1-5.6-17.6,0-35.3,0-52.9-.3-3.5,0-4.6,1.4-5,4.6-1.4,11.1-2.8,22.1-4.5,33.1-.6,4.2,1,5.1,4.8,5.1,18.1-.1,36.3,0,54.4,0,5.3,0,10.6,0,17.3,0ZM650.5,458.2c1.3.2,2,.5,2.6.5,21.6-.2,43.2-.6,64.9-.8,11.5-.1,11.6-.3,8.9-11.5-2.1-8.9-4-17.8-6.4-26.6-.4-1.3-2.5-3-3.9-3.1-8.6-.6-17.3-1.2-25.9-1-9.6.1-19.2.9-28.8,1.7-4.1.3-6.4,2.9-6.7,7.3-.4,4.6-1.2,9.2-1.9,13.8-.9,6.5-1.9,13-2.8,19.7ZM1137.7,456.4h78.2c-1.5-12.8-2.3-25.4-7.2-37.2-.5-1.2-2.4-2.7-3.6-2.7-18.9-.4-37.9-.5-56.8-.5-1.1,0-3,1.8-3.3,3.1-1.7,7.2-3.1,14.6-4.5,21.9-1,5-1.8,10-2.8,15.5ZM883.9,457.9c0,0,0-.1,0-.2,10.8,0,21.6-.2,32.4,0,4.5,0,6-1.5,5.1-5.9-2.4-10.7-4.8-21.4-7-32.1-.7-3.4-2.7-4.5-6-4.5-14.8.1-29.6,0-44.4.3-10.9.2-10.9.5-12.9,11-1.6,8.2-3.4,16.3-4.7,24.5-1,6.2-.2,6.8,5.7,6.8,10.6,0,21.3,0,31.9,0ZM825,458.2c-2.4-13-4.4-24.4-6.8-35.7-1-4.5-4.1-6.7-9.2-6.6-16,.1-31.9-.2-47.9-.1-1.6,0-4.3,1.7-4.6,3.1-3.1,11.4-5.8,22.8-8.5,34.3-.8,3.4.9,4.7,4.4,4.7,7.1,0,14.3.3,21.5.3,16.4,0,32.9,0,51.2,0ZM455.3,458.1h75.8c0-1.7.2-2.4,0-3-3.7-12.1-7.4-24.2-11.5-36.1-.5-1.4-3.1-2.8-4.8-2.9-4.5-.3-9,0-13.5,0-12.5.1-25,.3-37.4.4-2.7,0-4.4.7-4.7,3.8-1.2,12.6-2.6,25.1-3.9,37.7ZM1337.1,509.7c-.4-3.3-.3-6.6-1.1-9.6-4.5-15.4-17.9-25-35.1-19.6-5.7,1.8-12.1,5.5-15.4,10.3-7.2,10.4-7.8,22.5-3.1,34.4,5.8,14.7,24.7,20.9,38.5,13.3,11.6-6.4,15-17,16.2-28.9ZM734.2,515.8c0-.7,0-1.3,0-2-1-12.5-3.8-23.8-17.9-27.8-2.7-.8-5.1-2.5-7.7-3.5-6.3-2.4-13-1.5-17.2,3-5.7,6.1-10.9,13.2-14.4,20.7-5.7,12.4,0,24.9,12.2,30.8,8.1,3.8,16.4,4.6,25.3,2.8,13.2-2.8,19.7-10.3,19.7-23.9ZM524.2,513.5c.6,12.3,5.7,19.6,14.1,24.5,3.2,1.9,7.2,4,10.5,3.6,11.5-1.4,21.8-6.1,30-14.4,1.7-1.7,2.5-4.5,3.3-6.9,2.3-6.8-.9-12.9-2.2-19.4-2.3-11.5-9.7-16.8-20.6-18.5-12.3-2-25.9,3.6-29.8,13.2-2.6,6.4-3.9,13.3-5.2,17.9ZM901.2,509c-.3,8.4,1.3,16.2,7.1,22.7,9.7,10.8,24.8,11.7,38.4,2.3,16.2-11.2,17-32.5,1.5-44.9-9.9-8-20.1-9-32-3.7-12,5.4-14.6,7.7-15.1,21,0,.8,0,1.7,0,2.5ZM1185.5,511.4c0-9.4-5.5-19.6-16-27-10.4-7.4-25.4-5.3-33.4,4.3-12.7,15.2-7.1,42,10.7,50.7,1.9.9,4.5,1.3,6.6.9,5.2-.9,10.4-2.3,15.5-3.7,11.4-3.1,16.5-9.9,16.6-25.3ZM989.4,687.5c0-8.8-.1-15.7,0-22.7,0-3.5-1.2-4.8-4.7-4.6-11.6.5-23.3.9-34.9,1.3-18.9.6-37.8,1.1-56.7,1.9-1.9,0-4.7,2.1-5.3,3.8-1.5,4-2.1,8.4-3,12.6-1.3,6.8-1,7.2,6,7.9,1,.1,2,.3,3,.2,20.9-.2,41.9-.4,62.8-.5,10.4,0,20.9,0,32.7,0ZM939.7,772.9c9.5-.7,18.1-1.4,26.8-1.9,4-.3,5.8-2.2,6.3-6.2.8-6.2-.2-11.9-3.8-17.1-8.4-12.2-30.8-20.3-45.1-15.8-2.7.8-5.3,2.9-7,5.1-2.7,3.3-5.2,7.1-6.8,11-2,5.2-3.2,10.7-4.3,16.2-.7,3.2,1,5.2,4.5,5.6,10.1,1,20.2,2.1,29.5,3.1ZM939.7,844.5c8.2-20.5,15.9-39.9,23.8-59.8h-48.2c5.9,21,13.2,40.6,24.4,59.8ZM528.4,475.2c-.1-.5-.2-.9-.3-1.4-14.8.9-29.6,1.7-44.3,2.6,0,.5-.2,1-.3,1.5,6.3,2.8,12.6,5.7,18.9,8.5,8.5,3.9,8.4,3.7,15-2.4,3.4-3.2,7.3-5.9,11-8.8ZM1378.9,475.2c0-.6-.2-1.1-.3-1.7h-43.6c1.5,1.8,2.4,3,3.3,4q9.2,10.2,21.8,5.2c6.3-2.5,12.5-5,18.7-7.5ZM930.4,712.6c0,.5,0,1,0,1.5,9.6,1.1,19.1,2.2,29.3,3.3-.1-2-.2-3.5-.3-4.9h-28.9ZM665.2,474.6c7.7,7.9,11,7.7,15.2,0h-15.2ZM1183.5,472.3c8.3,7.9,12.2,8,18,1.3-5.8-.4-11.2-.8-18-1.3Z"/>
        <path class="cls-2" d="M1157.6,274.6c5.2,1.7,10.6,3,15.5,5.4,4.7,2.3,8.8,5.9,13.3,9,5.6-3.3,8.1-11,16.3-12.8,0,9.1,0,17.6,0,26,0,4.8.1,9.7,0,14.5,0,1.2-1.2,2.3-1.8,3.5-1.2-.7-2.8-1.1-3.5-2.2-1.5-2.2-2.4-4.8-3.7-7.1-6.2-10.5-13.7-19.8-24.9-25.3-7.9-3.9-16.2-5-24.7-2.3-5.9,1.8-8.5,6.2-9.1,11.9-.6,5.4,2.5,9.2,7,11.1,6.4,2.6,13.3,4.3,20,6.2,8.5,2.4,17.3,4,25.5,7,24.3,9,32.5,40.7,16.1,60.9-9,11-26.9,15.4-42.7,9.2-6.8-2.7-12.9-7.4-19-11.7-2.7-1.9-4.4-2.2-6.7.4-2.7,3.1-5.5,6.3-8.6,9-1.3,1.2-3.4,1.5-5.2,2.1-.4-1.5-1.2-3-1.2-4.5,0-14,0-27.9,0-41.7,3.9-1.8,5.6,0,7,2.9,4.7,9.4,9.7,18.6,17.9,25.6,8.7,7.4,18.2,13.1,30.1,12.9,3.9,0,8-.7,11.7-2.1,8.5-3.4,10.1-14.4,2.8-19.8-3.4-2.5-7.6-4.1-11.7-5.2-9-2.4-18.2-4-27.3-6.1-3.5-.8-7-2.2-10.4-3.5-14.5-5.2-21.9-15.7-22.9-30.9-1-14.9,3.8-27.4,16-36.2,4.4-3.2,10.3-4.3,15.5-6.4,3,0,6,0,9,0ZM1131,331.6c-.2.8-.4,1.5-.6,2.3,2.2.7,4.5,1.9,6.7,1.9,16.1.2,32.3.1,48.4,0,1.1,0,2.3-.3,3.4-.5,0-.6,0-1.2.1-1.8-3.4-.6-6.8-1.8-10.3-1.8-15.9-.2-31.9,0-47.8,0ZM1144.8,341.1c0,.8-.1,1.5-.2,2.3,18.3,4.3,36.9,1,55.6,1-1.5-1.9-3.3-2.9-5.1-3.2-1.9-.3-4,0-6,0-14.8,0-29.6,0-44.3,0ZM1125.3,322.8c3.4,5.8,8.5,2.8,12.5,3.3,4.5.5,9.2.1,13.8.1-7-4.5-16.7-5.5-26.3-3.4ZM1181.9,351.4c6.4,4.6,13.4,4.3,20.4,3.8.6,0,1.6-1.4,1.5-1.9-.1-.7-1.2-1.7-1.9-1.7-6.7-.1-13.3,0-20,0ZM1132.3,317c-1.3-5.1-3.8-5.7-8.8-1.5,2.8.5,5.6,1,8.8,1.5Z"/>
        <path class="cls-2" d="M841.3,388.6c-11.7,0-23.4.1-35-.2-1.5,0-3.5-2.2-4.2-3.8-5.5-13.8-10.7-27.7-16.1-41.5-.7-1.9-2.2-3.4-3.8-6-.9,2-1.4,2.6-1.4,3.2,0,10.8,0,21.6.2,32.5,0,4.9,2.9,7.8,7.7,8.2,4.8.4,6,2.6,4.6,7.3h-58.4v-6.5c1.4-.1,2.5-.2,3.7-.3,9.8-.5,11.9-2.1,12.1-11.9.3-24,.4-48,.1-72-.1-9.9-2.1-11.8-11.7-12.3-4.8-.3-5-2.7-4.1-6.8,1.6-.2,3.3-.5,5.1-.5,23.3.3,46.7.4,70,1.3,15.6.6,22.9,8.1,24.3,23.7,1.4,14.7-2,27.2-16.9,34-1,.4-2,2.8-1.6,3.8,3.4,9.7,6.4,19.7,10.9,28.9,2.1,4.4,6.8,8.2,11.2,10.7,3.6,2.1,5.1,3.7,3.4,8.3ZM780.6,308.3c0,6.1-.2,12.3.1,18.4,0,1.4,1.7,3.6,2.9,3.9,7.4,1.5,14.3-2.4,16.7-9.4,3-8.4,2.9-17,0-25.4-2.3-6.7-8.2-10.4-14.9-10.4-3.4,0-5.1,1-4.9,4.9.3,6,0,12,0,17.9Z"/>
        <path class="cls-2" d="M948.6,339.3c3.3,8.8,6.6,19.5,11.3,29.5,2.1,4.4,6.7,8.4,11.1,10.8,4,2.2,4.9,4.1,3.5,8.7-11.7,0-23.5.1-35.2-.2-1.4,0-3.2-2.6-3.9-4.3-5.6-13.9-11-27.9-16.5-41.8-.7-1.7-2.1-3.1-3.1-4.7-.5.2-.9.4-1.4.6-.2.9-.6,1.8-.6,2.7,0,10,0,20,.2,30,.2,6.5,2.2,9.1,8.3,9.8,5.1.6,5.5,3.1,4.3,7.5h-57.5c-1.8-6-1.4-6.7,4.4-7.1,7.7-.4,10.2-2.5,10.4-10.3.3-16,.1-32,.1-48,0-8.8,0-17.7-.2-26.5-.3-9-2-10.7-10.9-11.5-2.6-.2-5.2,0-4.9-3.9.2-3.6,2.8-3.2,5.1-3.2,21.3.1,42.6.2,64,.4.5,0,1,0,1.5,0,25.5,1.1,38.3,23.8,25.5,46.2-3.2,5.5-9.4,9.3-15.5,15.2ZM914,329.2c9.7,2.7,17.2-1.1,20.2-10,2.5-7.7,2.2-15.5,0-23.1-2.2-7.7-9.4-12.4-16.7-11.2-1.2.2-3.3,1.7-3.3,2.6-.2,13.9-.1,27.9-.1,41.6ZM904,360.8h-14.2c-.2.5-.5.9-.7,1.4,1.4.8,2.9,2.5,4.3,2.4,3.3-.4,7.8,2.3,10.6-3.8ZM890.2,319.8c-.3.5-.5,1-.8,1.5,1.3.8,2.8,2.5,3.9,2.2,3.2-.8,8.2,2.9,10.1-3.7h-13.2ZM896.1,333.3c2.7-1,4.8-1.7,7-2.5-2.2-.7-4.4-1.8-6.7-1.9-2.2,0-4.4.9-6.6,1.4,2.1,1,4.2,2,6.3,2.9ZM896.5,339.5c-2.5,1.2-4.5,2.2-6.6,3.2,2.3.7,4.5,1.9,6.8,1.9,2.1,0,4.3-1.2,6.4-1.9-2.1-1-4.1-2-6.6-3.2ZM888.5,350.6c1.8,2,2.5,3.6,3.4,3.7,3.1.3,6.3.2,9.4,0,.7,0,1.3-1.1,1.9-1.7-.8-.7-1.5-1.8-2.3-1.9-3.6-.2-7.2,0-12.4,0ZM896.1,313.7c1.3,0,2.7.2,4,0,1.1-.3,2-1.2,2.9-1.8-.9-.7-1.8-1.7-2.9-1.9-1.8-.4-3.7-.6-5.5-.3-1.7.3-3.2,1.3-4.8,1.9,1.6.7,3.1,1.5,4.7,2.1.4.2,1,0,1.5,0ZM903.3,300.8c-.2-.4-.4-.8-.6-1.2-1.8,0-3.6,0-5.4,0-1.8,0-3.7-.1-5.5.1-.7,0-1.4,1-2.1,1.6.7.7,1.4,2,2.2,2.1,3,.2,6,.3,9,0,.9,0,1.6-1.6,2.4-2.5ZM895.9,374.9c2.4-1.2,4.5-2.2,6.5-3.2-2.2-.7-4.4-1.8-6.7-1.9-2,0-3.9,1.2-5.9,1.9,1.9,1,3.7,2,6.1,3.2ZM889.1,290.4c.3,1.4.5,2.5.7,2.5,4.2.3,8.4.4,12.5.5.2,0,.8-1.2.6-1.6-.3-.6-1.1-1.3-1.7-1.4-3.9-.1-7.8,0-12.1,0ZM888,379.5c0,.6.1,1.2.2,1.8h14.5c0-.4,0-.9,0-1.3-4.9-.6-9.8-1.8-14.6-.5ZM902.6,284.2c0-.4,0-.8,0-1.2h-13.9c0,.4,0,.8,0,1.2h13.8Z"/>
        <path class="cls-2" d="M1288.3,348.8c-4,1.6-5.6-.3-6.9-3.3-2.8-6.4-7.3-11.1-13.8-13.7-4.7-1.9-6-1-6.1,4.1,0,12.5,0,25,0,37.5,0,3.1,1.1,4,4,4.2,10,.4,18.5-3.4,25-10.5,6-6.6,10.8-14.3,16.3-21.4,1.3-1.6,3.4-2.6,5.1-3.9.8,1.9,2.3,3.8,2.3,5.8.2,11,0,22,0,33,0,2.8-.8,4.4-3.9,4.4-30.8,0-61.7-.1-92.5-.2-.3,0-.6-.2-.9-.3-1.6-6.1-1.4-6.3,4.7-7.1,8.3-1,9.9-2.1,10-10.6.4-24.7.5-49.3.3-74-.1-9.5-2.3-11-12-11.3-1,0-1.9-.1-3.2-.2v-7h95.9c0,3.2,0,6.4,0,9.7,0,9.3,0,18.7,0,28,0,1.5-1.1,3-1.6,4.6-1.5-1.1-3.4-1.8-4.4-3.2-5.6-7.4-10.7-15.2-16.5-22.4-7.1-8.7-16.7-10.9-27.9-8.8v40.8c5.2.7,9.2-1.5,12.2-4.8,3.1-3.4,5.3-7.6,8.2-11.3.8-1.1,2.5-1.7,3.9-1.9.6,0,2,1.7,2,2.6.1,13.8,0,27.6,0,41.2Z"/>
        <path class="cls-2" d="M1051.6,279.3v6.9c-1.2.2-2.1.5-3,.5-10.6.6-13,2.8-13.1,13.8-.1,18.5,0,37,0,55.4,0,4.6,0,9.4,1,13.9,1.4,6.7,4.3,13.1,11.8,14.6,8.4,1.7,16.2-.9,20.2-8.6,3.5-6.8,6.2-14.6,6.8-22.1,1.2-15.4,1-30.9.7-46.4-.3-12.2-4.6-17.3-15.8-21.4-1-6.5-.9-6.9,5.1-7,9.8-.1,19.6-.1,29.5,0,1.2,0,3.5,1.5,3.4,2.2-.1,1.9-.8,4.8-2,5.3-8.9,3.5-12.2,10.7-12.6,19.3-.6,13.1,0,26.3-1,39.4-.7,9.2-2.4,18.5-5.1,27.3-3.1,10.3-10.7,17.1-21.3,19-7.7,1.4-15.9,1.7-23.7.9-10.4-1.2-17.9-7.7-21.4-17.4-2.6-7.1-4.4-14.8-4.8-22.3-.8-15.1-.2-30.3-.4-45.4,0-4.5-.5-8.9-1-13.4-.4-4.3-2.7-6.6-7.2-6.7-1.7,0-3.3-.5-5-.6-3,0-3.4-1.9-3.4-4.4,0-2.9,1.7-3.1,3.9-3.1,12.3,0,24.6,0,37,0,7,0,13.9,0,21.3,0Z"/>
        <path class="cls-2" d="M706.7,382.3v6.8h-61.2c-1.3-4.3-.9-6.8,4.4-7.5,7.2-.9,8.3-3.2,6.2-10.2q-3.5-11.4-15.3-11.4c-4.8,0-9.7,0-14.5,0-3.2,0-4.4,1.3-4.3,4.6.2,10.1,3.7,14.9,13.1,17.4,3.6,1,3.7,1.2,2.8,7.2h-42.8c-1.3-3.6-1.1-6.3,3-7.9,5.5-2.2,9.4-6.3,11.7-11.7,10.8-26,21.6-52,32.3-78,1.7-4,3.1-8.1,5-12,.7-1.5,2.3-2.5,3.5-3.7,1.3,1.3,3.3,2.3,3.9,3.9,6.8,17,13.4,34.1,20.2,51.1,4.8,12.2,9.9,24.4,14.6,36.7,3.1,8.3,7.9,14.2,17.7,14.9ZM624.6,348.9h23.9c-3.9-10-7.6-19.5-11.3-29-.5,0-.9.1-1.4.2-3.6,9.4-7.2,18.7-11.1,28.9Z"/>
        <path class="cls-2" d="M1423,386.7h-96.4q-1.4-6.4,4.8-7.3c8.1-1.2,9.8-2.7,9.9-10.8,0-25.5-.1-51-.4-76.4,0-6-2.3-7.9-8.2-8.5-2.1-.2-4.3-.4-6.6-.7v-6.4h60.7c1.6,4.7.8,6.9-4.3,7.1-8,.4-9.8,2.1-10.7,10.2-.6,5.4-.7,11-.7,16.4,0,21.3,0,42.6-.1,64,0,4.2,1.3,5.6,5.3,5.6,9.4,0,17.4-3.6,23.6-10.3,5.7-6.2,10.4-13.3,15.5-20.1.9-1.2,1.4-2.8,2.4-3.8.8-.8,2.4-1.6,3.4-1.4.8.2,1.7,1.9,1.7,3,.1,13,0,25.9,0,39.4ZM1347.6,291c-.4.5-.7,1-1.1,1.5,1.3.8,2.7,2.3,3.8,2.2,3.2-.4,7.8,2.2,9.5-3.7h-12.2ZM1352.7,372.9s0,0,0,0c1.2,0,2.4.3,3.5,0,1-.4,1.8-1.4,2.7-2.1-1-.6-1.9-1.6-2.9-1.8-1.6-.3-3.4-.3-5,0-1.4.3-2.6,1.2-3.9,1.8,1.2.7,2.4,1.5,3.7,2.1.6.3,1.3,0,2,0ZM1352.9,363.1h0c.8,0,1.7.2,2.5,0,1.2-.4,2.3-1.2,3.4-1.8-1-.8-2-1.9-3.2-2.2-1.9-.4-4-.4-5.9-.1-.9.1-1.6,1.2-2.4,1.9.9.8,1.6,1.7,2.7,2.2.8.4,2,0,3,0ZM1358.9,303.6c-.7-3.8-3.5-4.5-11.1-2.8.7,3.7,1.2,3.9,11.1,2.8ZM1353.1,333.5h0c.8,0,1.8.3,2.5,0,1.2-.5,2.2-1.3,3.2-2-1-.6-1.9-1.6-3-1.7-2-.3-4-.3-6,0-.8.1-1.5,1.2-2.2,1.9.7.6,1.2,1.5,2,1.7,1.1.3,2.3,0,3.5,0ZM1353.4,349.6h0c-.8,0-1.7-.2-2.4,0-1.2.4-2.2,1.2-3.3,1.8,1.1.7,2.1,1.7,3.3,1.9,1.7.3,3.6.3,5.4,0,1-.2,1.7-1.3,2.6-2-.8-.6-1.6-1.3-2.6-1.6-.9-.3-1.9,0-2.9,0ZM1353.4,314.5l.4.8c1.7-.9,3.4-1.7,5.1-2.6-1.8-.8-3.7-1.7-5.6-2.2-1.1-.3-2.4-.2-3.4,0-.7.2-1.9,1.3-1.8,1.7.3.9,1.1,1.9,1.9,2.2,1,.4,2.3,0,3.4,0ZM1345.3,283.8c0,.5,0,1,0,1.4h14.4c0-.5,0-1,0-1.4h-14.4ZM1352.6,343.1h0c1.1,0,2.4.3,3.4,0,1.1-.3,2-1.1,2.9-1.7-1-.6-1.8-1.7-2.9-1.8-2.1-.3-4.3-.2-6.4,0-.7,0-1.4.9-2.1,1.4.7.7,1.2,1.7,2.1,2.1.8.4,1.9,0,2.9,0ZM1358.7,323.9l.5-1.8c-1.3-.6-2.6-1.6-3.8-1.6-2.5,0-5.1.6-7.6,1,.5.8,1,2.3,1.6,2.3,3.1.2,6.2.1,9.3.1ZM1359.8,379.5c-3.7-2.9-10.9-2.5-13.9,0h13.9Z"/>
        <path class="cls-1" d="M445,390c-.8-3.8-1.6-6.8,3.9-6.9,9.2-.2,11.4-2.1,11.8-11.6.5-15.3.3-30.6.4-46,0-9.1.4-18.2-.2-27.3-.7-9.5-1.5-9.8-10.8-10.8-1.5-.2-3-.4-4.7-.7v-6.6h61.3c.1,2.2.2,4.1.4,6.6-2.9.4-5.7.9-8.4,1-3.7.2-5.9,2-6.7,5.5-.4,1.9-1,3.9-1,5.9,0,12.5,0,24.9,0,37.5.9,0,1.5.2,1.8,0,11.4-9.1,22.3-18.6,28.9-32,1.3-2.7,2.2-6,2.2-9-.1-4.4-2.6-7.3-7.4-7.9-6.2-.8-6.2-1-4.8-7.5h55.2c1.7,6,1.5,6.4-4.4,7.6-9.1,1.8-16.9,6-23.6,12.3-5.8,5.5-11.4,11.2-16.9,17.1-.9,1-1.5,3.5-.9,4.6,7.8,14.1,15.6,28.3,24,42,6.6,10.9,16.3,17.8,29.5,19.8v6.4h-65.5c-1.1-3.9-1.5-6.9,4.1-7,4,0,4.3-2.7,3.2-6-4.2-12.5-11.7-23.1-19.4-33.7-4.4,2.4-6.5,5.5-6,10.6.4,4.6,0,9.3,0,14-.3,12.1,1.3,14,13,15.9v6.2h-58.8ZM471.5,322h0c-1.3,0-2.7-.2-4,0-1.1.2-2,1-3,1.6,1,.8,1.9,2.1,2.9,2.2,2.9.3,5.9.2,8.9,0,.8,0,1.6-1.2,2.3-1.9-.7-.7-1.4-1.7-2.2-1.9-1.6-.3-3.3,0-4.9,0ZM471.1,317.3c.2-.3.3-.7.5-1,1.3,0,2.7.3,3.9,0,1.1-.4,2-1.5,3-2.3-1-.7-2-1.6-3.2-2-1.2-.3-2.7-.3-3.9,0-2.3.5-4.5,1.3-6.8,2,2.2,1.1,4.3,2.2,6.5,3.3ZM471,306.9c2.7-1,7.2-2.3,7.1-2.7-.9-4.3-4.7-2.1-7.2-2.2-2.2,0-4.4,1.3-6.6,2,2.2.9,4.3,1.8,6.7,2.9ZM470.9,358c.2-.3.3-.7.5-1,1.6,0,3.3.2,4.9,0,.9-.2,1.6-1.2,2.4-1.8-.8-.7-1.4-1.7-2.3-1.9-1.6-.3-3.3-.3-4.9,0-2.4.3-4.7,1-7,1.5l6.5,3.3ZM471,367.8c2.7-1,7.2-2.3,7.1-2.8-.9-4.4-4.7-2-7.2-2.2-2.2-.1-4.4,1.3-6.6,2,2.1,1,4.3,1.9,6.7,3ZM471.7,347.9c2.3-1.1,4.6-2.1,6.8-3.1-2.3-.6-4.6-1.8-7-1.8-2.4,0-5.9-2-6.8,2.2,0,.4,4.1,1.6,6.9,2.7ZM471.7,377.5c2.3-1.2,4.3-2.1,6.2-3.1-2-.6-4-1.6-6-1.6-2.3,0-4.6,1.1-6.9,1.7,2.1,1,4.2,1.9,6.7,3ZM471.7,336c2.1-.9,4.4-1.8,6.7-2.7-2.4-.5-4.8-1.4-7.1-1.3-2.2,0-4.4,1.2-6.7,1.8,2.2.7,4.3,1.4,7.1,2.3ZM478.5,294.2c-.3-.5-.5-1.1-.8-1.6-3.4,0-6.9-.1-10.3,0-.8,0-1.5,1.2-2.3,1.8.8.6,1.6,1.6,2.5,1.7,2.6.2,5.3.3,7.9,0,1-.1,2-1.3,3-2ZM465.8,285.3c6.2,2.8,10.4,2.8,13.5,0h-13.5ZM478.8,383.9c0-.5,0-1.1,0-1.6-5.1-.8-10.2-1-15.2,1.6h15.3Z"/>
      </g>
    </g>
  </g>
</svg>