<?xml version="1.0" encoding="UTF-8"?><svg id="Layer_1" xmlns="http://www.w3.org/2000/svg" width="800.01" height="465.43" viewBox="0 0 800.01 465.43"><g id="SVGRepo_iconCarrier"><path d="M800,162.06v-94.49c0-37.32-30.25-67.57-67.57-67.57H67.57C30.26,0,0,30.25,0,67.57v95.12c34.31,4.93,60.71,34.36,60.71,70.03S34.31,297.82,0,302.74v95.13c0,37.31,30.25,67.56,67.57,67.56h664.87c37.31,0,67.57-30.25,67.57-67.56v-94.5c-37.54-1.76-67.46-32.67-67.46-70.65s29.92-68.89,67.46-70.66h-.01ZM189.87,422.8h-23.25v-60.63h23.25v60.63ZM189.87,316.28h-23.25v-60.63h23.25v60.63ZM189.87,209.77h-23.25v-60.64h23.25v60.64ZM189.87,103.26h-23.25v-60.63h23.25v60.63Z" style="fill:#fed900; stroke-width:0px;"/></g><path d="M324.15,154.29c14.66,0,25.48,3.56,32.45,10.67,6.96,7.12,10.45,16.61,10.45,28.49,0,4.11-.48,8.11-1.43,11.99-.96,3.89-2.42,7.41-4.4,10.56-1.98,3.16-4.51,5.83-7.59,8.03s-6.82,3.74-11.22,4.62v.44c5.13.44,9.53,1.8,13.2,4.07,3.66,2.28,6.67,5.1,9.02,8.47,2.34,3.38,4.07,7.08,5.17,11.11,1.1,4.04,1.65,8.11,1.65,12.21,0,6.75-.88,12.98-2.64,18.7s-4.51,10.64-8.25,14.74c-3.74,4.11-8.62,7.3-14.63,9.57-6.02,2.28-13.28,3.41-21.78,3.41h-61.82v-157.08h61.82,0ZM313.15,215.89c4.25,0,7.48-1.57,9.68-4.73,2.2-3.15,3.3-6.85,3.3-11.11s-1.1-8.21-3.3-11.44c-2.2-3.22-5.43-4.84-9.68-4.84h-9.9v32.12h9.9ZM314.69,281.89c3.81,0,7.18-1.57,10.12-4.73,2.93-3.15,4.4-8.03,4.4-14.63,0-6.16-1.47-10.85-4.4-14.08-2.94-3.22-6.31-4.84-10.12-4.84h-11.44v38.28h11.44Z" style="fill:#010101; stroke-width:0px;"/><path d="M426.45,267.59c0,7.63,1.1,12.73,3.3,15.29,2.2,2.57,5.2,3.85,9.02,3.85s6.82-1.28,9.02-3.85c2.2-2.56,3.3-7.66,3.3-15.29v-113.3h40.92v102.96c0,11-1.17,20.17-3.52,27.5-2.35,7.34-5.76,13.2-10.23,17.6-4.48,4.4-10.01,7.41-16.61,9.02-6.6,1.61-14.23,2.42-22.88,2.42s-16.1-.81-22.77-2.42c-6.68-1.61-12.25-4.62-16.72-9.02-4.48-4.4-7.89-10.26-10.23-17.6-2.35-7.33-3.52-16.5-3.52-27.5v-102.96h40.92v113.3h0Z" style="fill:#010101; stroke-width:0px;"/><path d="M497.29,154.29h44.22l15.4,54.78h.44l15.4-54.78h44.88l-40.04,95.26v61.82h-40.92v-61.82l-39.38-95.26h0Z" style="fill:#010101; stroke-width:0px;"/></svg>